<svg xmlns="http://www.w3.org/2000/svg" width="1440" height="960" viewBox="0 0 1440 960" role="img" aria-label="把一场戏准备好"><title>把一场戏准备好</title><g id="n1052" data-name="S12 · 把一场戏准备好" transform="translate(0,0)"><rect width="1440" height="960" rx="0" fill="#F6F4F0" stroke="none" stroke-width="1"/><rect id="n1053" data-name="Surface" x="0" y="0" width="196" height="960" rx="0" fill="#FFFDF9" stroke="none"/><path id="n1054" data-name="Divider" d="M 196 0 L 196 960" fill="none" stroke="#DEDCD5" stroke-width="1" stroke-linecap="round" stroke-linejoin="round"/><rect id="n1055" data-name="Surface" x="22" y="23" width="32" height="32" rx="9" fill="#284C56" stroke="none"/><g id="n1056" data-name="Icon / book" transform="translate(28,28)"><path id="n1057" data-name="Stroke" d="M 3 4 Q 8 2 12 5 Q 16 2 21 4 L 21 20 Q 16 18 12 21 Q 8 18 3 20 Z M 12 5 L 12 21" fill="none" stroke="#FFFFFF" stroke-width="1.65" stroke-linecap="round" stroke-linejoin="round" transform="scale(0.8333333333333334)"/></g><text id="n1058" data-name="NovelCraft" font-family="Noto Sans SC,Noto Sans CJK SC,PingFang SC,Microsoft YaHei,sans-serif" font-size="18" font-weight="500" fill="#1E2A3B" text-anchor="start"><tspan x="66" y="40.8">NovelCraft</tspan></text><text id="n1059" data-name="我的作品" font-family="Noto Sans SC,Noto Sans CJK SC,PingFang SC,Microsoft YaHei,sans-serif" font-size="11" font-weight="500" fill="#667281" text-anchor="start"><tspan x="24" y="104.1">我的作品</tspan></text><text id="n1060" data-name="白石城来信" font-family="Noto Sans SC,Noto Sans CJK SC,PingFang SC,Microsoft YaHei,sans-serif" font-size="19" font-weight="700" fill="#1E2A3B" text-anchor="start"><tspan x="24" y="139.9">白石城来信</tspan></text><text id="n1061" data-name="长篇小说  /  作者工作区" font-family="Noto Sans SC,Noto Sans CJK SC,PingFang SC,Microsoft YaHei,sans-serif" font-size="11" font-weight="400" fill="#667281" text-anchor="start"><tspan x="24" y="163.1">长篇小说  /  作者工作区</tspan></text><g id="n1062" data-name="Navigation / 概览" data-target="S01" tabindex="0" role="button" aria-label="Navigation / 概览" transform="translate(24,212)"><g id="n1063" data-name="Icon / home" transform="translate(0,0)"><path id="n1064" data-name="Stroke" d="M 3 11 L 12 3 L 21 11 M 5 10 L 5 21 L 10 21 L 10 15 L 14 15 L 14 21 L 19 21 L 19 10" fill="none" stroke="#667281" stroke-width="1.65" stroke-linecap="round" stroke-linejoin="round" transform="scale(0.8333333333333334)"/></g><text id="n1065" data-name="概览" font-family="Noto Sans SC,Noto Sans CJK SC,PingFang SC,Microsoft YaHei,sans-serif" font-size="14" font-weight="400" fill="#485365" text-anchor="start"><tspan x="34" y="13.400000000000002">概览</tspan></text></g><g id="n1066" data-name="Navigation / 写作" data-target="S06" tabindex="0" role="button" aria-label="Navigation / 写作" transform="translate(24,264)"><g id="n1067" data-name="Icon / write" transform="translate(0,0)"><path id="n1068" data-name="Stroke" d="M 4 20 L 8 19 L 20 7 L 16 3 L 4 15 Z M 14 5 L 18 9 M 3 22 L 21 22" fill="none" stroke="#667281" stroke-width="1.65" stroke-linecap="round" stroke-linejoin="round" transform="scale(0.8333333333333334)"/></g><text id="n1069" data-name="写作" font-family="Noto Sans SC,Noto Sans CJK SC,PingFang SC,Microsoft YaHei,sans-serif" font-size="14" font-weight="400" fill="#485365" text-anchor="start"><tspan x="34" y="13.400000000000002">写作</tspan></text></g><rect id="n1070" data-name="Surface" x="12" y="309" width="172" height="44" rx="9" fill="#E5EEEB" stroke="none"/><g id="n1071" data-name="Navigation / 故事结构" data-target="S11" tabindex="0" role="button" aria-label="Navigation / 故事结构" transform="translate(24,316)"><g id="n1072" data-name="Icon / tree" transform="translate(0,0)"><path id="n1073" data-name="Stroke" d="M 5 3 L 5 19 L 19 19 M 5 7 L 19 7 M 12 7 L 12 13 L 19 13" fill="none" stroke="#284C56" stroke-width="1.65" stroke-linecap="round" stroke-linejoin="round" transform="scale(0.8333333333333334)"/></g><text id="n1074" data-name="故事结构" font-family="Noto Sans SC,Noto Sans CJK SC,PingFang SC,Microsoft YaHei,sans-serif" font-size="14" font-weight="500" fill="#284C56" text-anchor="start"><tspan x="34" y="13.400000000000002">故事结构</tspan></text></g><g id="n1075" data-name="Navigation / 世界资料" data-target="S13" tabindex="0" role="button" aria-label="Navigation / 世界资料" transform="translate(24,368)"><g id="n1076" data-name="Icon / world" transform="translate(0,0)"><path id="n1077" data-name="Stroke" d="M 3 12 A 9 9 0 1 0 21 12 A 9 9 0 1 0 3 12 M 3 12 L 21 12 M 12 3 C 5 9 5 15 12 21 C 19 15 19 9 12 3" fill="none" stroke="#667281" stroke-width="1.65" stroke-linecap="round" stroke-linejoin="round" transform="scale(0.8333333333333334)"/></g><text id="n1078" data-name="世界资料" font-family="Noto Sans SC,Noto Sans CJK SC,PingFang SC,Microsoft YaHei,sans-serif" font-size="14" font-weight="400" fill="#485365" text-anchor="start"><tspan x="34" y="13.400000000000002">世界资料</tspan></text></g><g id="n1079" data-name="Navigation / 故事地图" data-target="S20" tabindex="0" role="button" aria-label="Navigation / 故事地图" transform="translate(24,420)"><g id="n1080" data-name="Icon / map" transform="translate(0,0)"><path id="n1081" data-name="Stroke" d="M 2 5 L 8 2 L 16 5 L 22 2 L 22 19 L 16 22 L 8 19 L 2 22 Z M 8 2 L 8 19 M 16 5 L 16 22" fill="none" stroke="#667281" stroke-width="1.65" stroke-linecap="round" stroke-linejoin="round" transform="scale(0.8333333333333334)"/></g><text id="n1082" data-name="故事地图" font-family="Noto Sans SC,Noto Sans CJK SC,PingFang SC,Microsoft YaHei,sans-serif" font-size="14" font-weight="400" fill="#485365" text-anchor="start"><tspan x="34" y="13.400000000000002">故事地图</tspan></text></g><g id="n1083" data-name="Navigation / 待我决定" data-target="S16" tabindex="0" role="button" aria-label="Navigation / 待我决定" transform="translate(24,472)"><g id="n1084" data-name="Icon / check" transform="translate(0,0)"><path id="n1085" data-name="Stroke" d="M 4 12 L 9 17 L 20 5" fill="none" stroke="#667281" stroke-width="1.65" stroke-linecap="round" stroke-linejoin="round" transform="scale(0.8333333333333334)"/></g><text id="n1086" data-name="待我决定" font-family="Noto Sans SC,Noto Sans CJK SC,PingFang SC,Microsoft YaHei,sans-serif" font-size="14" font-weight="400" fill="#485365" text-anchor="start"><tspan x="34" y="13.400000000000002">待我决定</tspan></text></g><path id="n1087" data-name="Divider" d="M 24 552 L 172 552" fill="none" stroke="#DEDCD5" stroke-width="1" stroke-linecap="round" stroke-linejoin="round"/><text id="n1088" data-name="工作状态" font-family="Noto Sans SC,Noto Sans CJK SC,PingFang SC,Microsoft YaHei,sans-serif" font-size="11" font-weight="500" fill="#667281" text-anchor="start"><tspan x="24" y="591.1">工作状态</tspan></text><ellipse id="n1089" data-name="Ellipse" cx="28.0" cy="624.0" rx="3.0" ry="3.0" fill="#326F62" stroke="none" stroke-width="1"/><text id="n1090" data-name="理解已更新至第 12 章" font-family="Noto Sans SC,Noto Sans CJK SC,PingFang SC,Microsoft YaHei,sans-serif" font-size="11" font-weight="400" fill="#485365" text-anchor="start"><tspan x="39" y="624.1">理解已更新至第 12 章</tspan></text><text id="n1091" data-name="1 项需要你决定" font-family="Noto Sans SC,Noto Sans CJK SC,PingFang SC,Microsoft YaHei,sans-serif" font-size="12" font-weight="400" fill="#91601D" text-anchor="start"><tspan x="24" y="660.2">1 项需要你决定</tspan></text><g id="n1092" data-name="Navigation / 运行与恢复" data-target="S28" tabindex="0" role="button" aria-label="Navigation / 运行与恢复" transform="translate(24,793)"><g id="n1093" data-name="Icon / clock" transform="translate(0,0)"><path id="n1094" data-name="Stroke" d="M 3 12 A 9 9 0 1 0 21 12 A 9 9 0 1 0 3 12 M 12 6 L 12 12 L 17 15" fill="none" stroke="#667281" stroke-width="1.65" stroke-linecap="round" stroke-linejoin="round" transform="scale(0.75)"/></g><text id="n1095" data-name="运行与恢复" font-family="Noto Sans SC,Noto Sans CJK SC,PingFang SC,Microsoft YaHei,sans-serif" font-size="12" font-weight="400" fill="#485365" text-anchor="start"><tspan x="32" y="11.200000000000001">运行与恢复</tspan></text></g><g id="n1096" data-name="Navigation / 模型与授权" data-target="S29" tabindex="0" role="button" aria-label="Navigation / 模型与授权" transform="translate(24,841)"><g id="n1097" data-name="Icon / settings" transform="translate(0,0)"><path id="n1098" data-name="Stroke" d="M 4 7 L 20 7 M 4 17 L 20 17 M 9 3 L 9 11 M 16 13 L 16 21" fill="none" stroke="#667281" stroke-width="1.65" stroke-linecap="round" stroke-linejoin="round" transform="scale(0.75)"/></g><text id="n1099" data-name="模型与授权" font-family="Noto Sans SC,Noto Sans CJK SC,PingFang SC,Microsoft YaHei,sans-serif" font-size="12" font-weight="400" fill="#485365" text-anchor="start"><tspan x="32" y="11.200000000000001">模型与授权</tspan></text></g><text id="n1100" data-name="V4 设计样例 · 非生产数据" font-family="Noto Sans SC,Noto Sans CJK SC,PingFang SC,Microsoft YaHei,sans-serif" font-size="10" font-weight="400" fill="#667281" text-anchor="start"><tspan x="24" y="929.0">V4 设计样例 · 非生产数据</tspan></text><rect id="n1101" data-name="Surface" x="197" y="0" width="1243" height="64" rx="0" fill="#FFFDF9" stroke="none"/><path id="n1102" data-name="Divider" d="M 196 64 L 1440 64" fill="none" stroke="#DEDCD5" stroke-width="1" stroke-linecap="round" stroke-linejoin="round"/><text id="n1103" data-name="白石城来信" font-family="Noto Sans SC,Noto Sans CJK SC,PingFang SC,Microsoft YaHei,sans-serif" font-size="13" font-weight="400" fill="#485365" text-anchor="start"><tspan x="228" y="33.3">白石城来信</tspan></text><text id="n1104" data-name="/  场景工作区" font-family="Noto Sans SC,Noto Sans CJK SC,PingFang SC,Microsoft YaHei,sans-serif" font-size="13" font-weight="400" fill="#667281" text-anchor="start"><tspan x="359" y="33.3">/  场景工作区</tspan></text><g id="n1105" data-name="Command search" data-target="S42" tabindex="0" role="button" aria-label="Command search" transform="translate(932,12)"><rect width="258" height="40" rx="10" fill="#F6F4F0" stroke="none" stroke-width="1"/><g id="n1106" data-name="Icon / search" transform="translate(13,10)"><path id="n1107" data-name="Stroke" d="M 16 10 A 6 6 0 1 0 4 10 A 6 6 0 1 0 16 10 M 15 15 L 22 22" fill="none" stroke="#667281" stroke-width="1.65" stroke-linecap="round" stroke-linejoin="round" transform="scale(0.7083333333333334)"/></g><text id="n1108" data-name="找人物、场景、原文…" font-family="Noto Sans SC,Noto Sans CJK SC,PingFang SC,Microsoft YaHei,sans-serif" font-size="12" font-weight="400" fill="#667281" text-anchor="start"><tspan x="42" y="22.200000000000003">找人物、场景、原文…</tspan></text></g><g id="n1109" data-name="Status / 已保存" transform="translate(1210,18)"><rect width="72" height="28" rx="7" fill="#E8F1EB" stroke="none" stroke-width="1"/><text id="n1110" data-name="已保存" font-family="Noto Sans SC,Noto Sans CJK SC,PingFang SC,Microsoft YaHei,sans-serif" font-size="12" font-weight="500" fill="#326F62" text-anchor="middle"><tspan x="36.0" y="17.200000000000003">已保存</tspan></text></g><g id="n1111" data-name="Button / 项目设置" data-target="S32" tabindex="0" role="button" aria-label="Button / 项目设置" transform="translate(1300,10)"><text id="n1112" data-name="项目设置" font-family="Noto Sans SC,Noto Sans CJK SC,PingFang SC,Microsoft YaHei,sans-serif" font-size="12" font-weight="500" fill="#284C56" text-anchor="middle"><tspan x="55.0" y="25.9">项目设置</tspan></text></g><text id="n1113" data-name="把一场戏准备好" font-family="Noto Sans SC,Noto Sans CJK SC,PingFang SC,Microsoft YaHei,sans-serif" font-size="28" font-weight="700" fill="#1E2A3B" text-anchor="start"><tspan x="228" y="126.80000000000001">把一场戏准备好</tspan></text><text id="n1114" data-name="剧本与人物反应是写作依据，不是尚未写出的事实。采用后才供默认写作使用。" font-family="Noto Sans SC,Noto Sans CJK SC,PingFang SC,Microsoft YaHei,sans-serif" font-size="13" font-weight="400" fill="#667281" text-anchor="start"><tspan x="228" y="155.3">剧本与人物反应是写作依据，不是尚未写出的事实。采用后才供默认写作使用。</tspan></text><g id="n1115" data-name="Panel" transform="translate(228,190)"><rect width="816" height="310" rx="16" fill="#FFFDF9" stroke="#DEDCD5" stroke-width="1"/><text id="n1116" data-name="门廊的回答" font-family="Noto Sans SC,Noto Sans CJK SC,PingFang SC,Microsoft YaHei,sans-serif" font-size="25" font-weight="700" fill="#1E2A3B" text-anchor="start"><tspan x="24" y="52.5">门廊的回答</tspan></text><g id="n1117" data-name="Status / 已采用剧本" transform="translate(24,75)"><rect width="80" height="28" rx="7" fill="#E8F1EB" stroke="none" stroke-width="1"/><text id="n1118" data-name="已采用剧本" font-family="Noto Sans SC,Noto Sans CJK SC,PingFang SC,Microsoft YaHei,sans-serif" font-size="12" font-weight="500" fill="#326F62" text-anchor="middle"><tspan x="40.0" y="17.200000000000003">已采用剧本</tspan></text></g><text id="n1119" data-name="目标：青竹决定是否接下钥匙。 冲突：她愿意帮忙，却不愿再次被蒙在鼓里。 不得发生：揭晓井底人物身份。" font-family="Noto Sans SC,Noto Sans CJK SC,PingFang SC,Microsoft YaHei,sans-serif" font-size="17" font-weight="400" fill="#485365" text-anchor="start"><tspan x="24" y="146.7">目标：青竹决定是否接下钥匙。</tspan><tspan x="24" y="173.04999999999998">冲突：她愿意帮忙，却不愿再次被蒙在鼓里。</tspan><tspan x="24" y="199.39999999999998">不得发生：揭晓井底人物身份。</tspan></text><g id="n1120" data-name="Button / 由此继续写" data-target="S06" tabindex="0" role="button" aria-label="Button / 由此继续写" transform="translate(573,243)"><rect width="216" height="44" rx="10" fill="#284C56" stroke="none" stroke-width="1"/><text id="n1121" data-name="由此继续写" font-family="Noto Sans SC,Noto Sans CJK SC,PingFang SC,Microsoft YaHei,sans-serif" font-size="14" font-weight="500" fill="#FFFFFF" text-anchor="middle"><tspan x="108.0" y="26.550000000000004">由此继续写</tspan></text></g></g><g id="n1122" data-name="Panel" transform="translate(228,524)"><rect width="396" height="364" rx="16" fill="#FFFDF9" stroke="#DEDCD5" stroke-width="1"/><g id="n1123" data-name="人物形象 / 林舟" transform="translate(24,24)"><rect width="83" height="115" rx="12" fill="#CBDAD6" stroke="none" stroke-width="1"/><defs><clipPath id="clip-n1123"><rect width="83" height="115" rx="12"/></clipPath></defs><g clip-path="url(#clip-n1123)"><ellipse id="n1124" data-name="Ellipse" cx="41.915" cy="33.625" rx="18.675" ry="18.675" fill="#E4CEB6" stroke="none" stroke-width="1"/><path id="n1125" data-name="Vector" d="M 22.41 37.95 Q 14.110000000000001 3.4499999999999997 39.01 8.05 Q 65.57000000000001 5.75 61.42 42.55 Q 55.61000000000001 21.85 43.160000000000004 23.0 Q 29.88 26.450000000000003 22.41 37.95 Z" fill="#293D40" stroke="none" stroke-width="1" stroke-linecap="round" stroke-linejoin="round"/><path id="n1126" data-name="Vector" d="M 3.3200000000000003 115 Q 3.3200000000000003 69.0 30.71 60.95 L 41.5 75.9 L 51.46 60.95 Q 81.34 71.3 82.17 115 Z" fill="#496C6A" stroke="none" stroke-width="1" stroke-linecap="round" stroke-linejoin="round"/><path id="n1127" data-name="Vector" d="M 30.71 60.95 L 41.5 75.9 L 53.95 60.95 L 48.13999999999999 115 L 35.69 115 Z" fill="#D1CCB8" stroke="none" stroke-width="1" stroke-linecap="round" stroke-linejoin="round"/></g></g><text id="n1128" data-name="林舟" font-family="Noto Sans SC,Noto Sans CJK SC,PingFang SC,Microsoft YaHei,sans-serif" font-size="23" font-weight="500" fill="#1E2A3B" text-anchor="start"><tspan x="127" y="52.3">林舟</tspan></text><g id="n1129" data-name="Status / 角色视角资料" transform="translate(127,78)"><rect width="92" height="28" rx="7" fill="#E5EEEB" stroke="none" stroke-width="1"/><text id="n1130" data-name="角色视角资料" font-family="Noto Sans SC,Noto Sans CJK SC,PingFang SC,Microsoft YaHei,sans-serif" font-size="12" font-weight="500" fill="#284C56" text-anchor="middle"><tspan x="46.0" y="17.200000000000003">角色视角资料</tspan></text></g><text id="n1131" data-name="想尽快离开，又不能解释真正的原因。 可以回避问题；不能无代价说服对方。" font-family="Noto Sans SC,Noto Sans CJK SC,PingFang SC,Microsoft YaHei,sans-serif" font-size="16" font-weight="400" fill="#485365" text-anchor="start"><tspan x="24" y="187.6">想尽快离开，又不能解释真正的原因。</tspan><tspan x="24" y="212.4">可以回避问题；不能无代价说服对方。</tspan></text><g id="n1132" data-name="Button / 探索另一种反应" data-target="S09" tabindex="0" role="button" aria-label="Button / 探索另一种反应" transform="translate(24,296)"><rect width="348" height="44" rx="10" fill="#FFFDF9" stroke="#DEDCD5" stroke-width="1"/><text id="n1133" data-name="探索另一种反应" font-family="Noto Sans SC,Noto Sans CJK SC,PingFang SC,Microsoft YaHei,sans-serif" font-size="14" font-weight="500" fill="#1E2A3B" text-anchor="middle"><tspan x="174.0" y="26.550000000000004">探索另一种反应</tspan></text></g></g><g id="n1134" data-name="Panel" transform="translate(648,524)"><rect width="396" height="364" rx="16" fill="#FFFDF9" stroke="#DEDCD5" stroke-width="1"/><g id="n1135" data-name="人物形象 / 青竹" transform="translate(24,24)"><rect width="83" height="115" rx="12" fill="#CBDAD6" stroke="none" stroke-width="1"/><defs><clipPath id="clip-n1135"><rect width="83" height="115" rx="12"/></clipPath></defs><g clip-path="url(#clip-n1135)"><ellipse id="n1136" data-name="Ellipse" cx="41.915" cy="33.625" rx="18.675" ry="18.675" fill="#E4CEB6" stroke="none" stroke-width="1"/><path id="n1137" data-name="Vector" d="M 22.41 37.95 Q 14.110000000000001 3.4499999999999997 39.01 8.05 Q 65.57000000000001 5.75 61.42 42.55 Q 55.61000000000001 21.85 43.160000000000004 23.0 Q 29.88 26.450000000000003 22.41 37.95 Z" fill="#293D40" stroke="none" stroke-width="1" stroke-linecap="round" stroke-linejoin="round"/><path id="n1138" data-name="Vector" d="M 3.3200000000000003 115 Q 3.3200000000000003 69.0 30.71 60.95 L 41.5 75.9 L 51.46 60.95 Q 81.34 71.3 82.17 115 Z" fill="#496C6A" stroke="none" stroke-width="1" stroke-linecap="round" stroke-linejoin="round"/><path id="n1139" data-name="Vector" d="M 30.71 60.95 L 41.5 75.9 L 53.95 60.95 L 48.13999999999999 115 L 35.69 115 Z" fill="#D1CCB8" stroke="none" stroke-width="1" stroke-linecap="round" stroke-linejoin="round"/></g></g><text id="n1140" data-name="青竹" font-family="Noto Sans SC,Noto Sans CJK SC,PingFang SC,Microsoft YaHei,sans-serif" font-size="23" font-weight="500" fill="#1E2A3B" text-anchor="start"><tspan x="127" y="52.3">青竹</tspan></text><g id="n1141" data-name="Status / 角色视角资料" transform="translate(127,78)"><rect width="92" height="28" rx="7" fill="#E5EEEB" stroke="none" stroke-width="1"/><text id="n1142" data-name="角色视角资料" font-family="Noto Sans SC,Noto Sans CJK SC,PingFang SC,Microsoft YaHei,sans-serif" font-size="12" font-weight="500" fill="#284C56" text-anchor="middle"><tspan x="46.0" y="17.200000000000003">角色视角资料</tspan></text></g><text id="n1143" data-name="希望得到尊重，而不是被分派任务。 接受保管不等于完全相信。" font-family="Noto Sans SC,Noto Sans CJK SC,PingFang SC,Microsoft YaHei,sans-serif" font-size="16" font-weight="400" fill="#485365" text-anchor="start"><tspan x="24" y="187.6">希望得到尊重，而不是被分派任务。</tspan><tspan x="24" y="212.4">接受保管不等于完全相信。</tspan></text><g id="n1144" data-name="Button / 探索另一种反应" data-target="S09" tabindex="0" role="button" aria-label="Button / 探索另一种反应" transform="translate(24,296)"><rect width="348" height="44" rx="10" fill="#FFFDF9" stroke="#DEDCD5" stroke-width="1"/><text id="n1145" data-name="探索另一种反应" font-family="Noto Sans SC,Noto Sans CJK SC,PingFang SC,Microsoft YaHei,sans-serif" font-size="14" font-weight="500" fill="#1E2A3B" text-anchor="middle"><tspan x="174.0" y="26.550000000000004">探索另一种反应</tspan></text></g></g><g id="n1146" data-name="Panel" transform="translate(1068,188)"><rect width="344" height="700" rx="16" fill="#FFFDF9" stroke="#DEDCD5" stroke-width="1"/><g id="n1147" data-name="Icon / spark" transform="translate(22,22)"><path id="n1148" data-name="Stroke" d="M 12 2 L 15 9 L 22 12 L 15 15 L 12 22 L 9 15 L 2 12 L 9 9 Z" fill="none" stroke="#6D5C95" stroke-width="1.65" stroke-linecap="round" stroke-linejoin="round" transform="scale(0.9166666666666666)"/></g><text id="n1149" data-name="写作伙伴" font-family="Noto Sans SC,Noto Sans CJK SC,PingFang SC,Microsoft YaHei,sans-serif" font-size="17" font-weight="500" fill="#1E2A3B" text-anchor="start"><tspan x="55" y="38.7">写作伙伴</tspan></text><g id="n1150" data-name="Button / 当前" data-target="S06" tabindex="0" role="button" aria-label="Button / 当前" transform="translate(16,52)"><text id="n1151" data-name="当前" font-family="Noto Sans SC,Noto Sans CJK SC,PingFang SC,Microsoft YaHei,sans-serif" font-size="12" font-weight="500" fill="#284C56" text-anchor="middle"><tspan x="46.0" y="25.9">当前</tspan></text></g><g id="n1152" data-name="Button / 讨论" data-target="S27" tabindex="0" role="button" aria-label="Button / 讨论" transform="translate(122,52)"><text id="n1153" data-name="讨论" font-family="Noto Sans SC,Noto Sans CJK SC,PingFang SC,Microsoft YaHei,sans-serif" font-size="12" font-weight="500" fill="#284C56" text-anchor="middle"><tspan x="46.0" y="25.9">讨论</tspan></text></g><g id="n1154" data-name="Button / 历史" data-target="S28" tabindex="0" role="button" aria-label="Button / 历史" transform="translate(228,52)"><text id="n1155" data-name="历史" font-family="Noto Sans SC,Noto Sans CJK SC,PingFang SC,Microsoft YaHei,sans-serif" font-size="12" font-weight="500" fill="#284C56" text-anchor="middle"><tspan x="46.0" y="25.9">历史</tspan></text></g><path id="n1156" data-name="Divider" d="M 22 101 L 322 101" fill="none" stroke="#DEDCD5" stroke-width="1" stroke-linecap="round" stroke-linejoin="round"/><g id="n1157" data-name="Status / 场景存在 1 项开放选择" transform="translate(22,124)"><rect width="300" height="28" rx="7" fill="#EFEAF5" stroke="none" stroke-width="1"/><text id="n1158" data-name="场景存在 1 项开放选择" font-family="Noto Sans SC,Noto Sans CJK SC,PingFang SC,Microsoft YaHei,sans-serif" font-size="12" font-weight="500" fill="#6D5C95" text-anchor="middle"><tspan x="150.0" y="17.200000000000003">场景存在 1 项开放选择</tspan></text></g><text id="n1159" data-name="先补清楚“她为何留下”" font-family="Noto Sans SC,Noto Sans CJK SC,PingFang SC,Microsoft YaHei,sans-serif" font-size="22" font-weight="500" fill="#1E2A3B" text-anchor="start"><tspan x="22" y="198.2">先补清楚“她为何留下”</tspan></text><text id="n1160" data-name="角色反应存在多种可能。可以比较直接拒绝、附带条件与暂缓回答，但不强制选取最戏剧化方案。" font-family="Noto Sans SC,Noto Sans CJK SC,PingFang SC,Microsoft YaHei,sans-serif" font-size="15" font-weight="400" fill="#485365" text-anchor="start"><tspan x="22" y="253.5">角色反应存在多种可能。可以比较直接拒绝</tspan><tspan x="22" y="276.75">、附带条件与暂缓回答，但不强制选取最戏</tspan><tspan x="22" y="300.0">剧化方案。</tspan></text><g id="n1161" data-name="Button / 比较人物反应" data-target="S09" tabindex="0" role="button" aria-label="Button / 比较人物反应" transform="translate(22,352)"><rect width="300" height="44" rx="10" fill="#284C56" stroke="none" stroke-width="1"/><text id="n1162" data-name="比较人物反应" font-family="Noto Sans SC,Noto Sans CJK SC,PingFang SC,Microsoft YaHei,sans-serif" font-size="14" font-weight="500" fill="#FFFFFF" text-anchor="middle"><tspan x="150.0" y="26.550000000000004">比较人物反应</tspan></text></g><text id="n1163" data-name="依据" font-family="Noto Sans SC,Noto Sans CJK SC,PingFang SC,Microsoft YaHei,sans-serif" font-size="12" font-weight="500" fill="#667281" text-anchor="start"><tspan x="22" y="438.2">依据</tspan></text><text id="n1164" data-name="第 12 章 · 当前选段 人物：林舟、青竹" font-family="Noto Sans SC,Noto Sans CJK SC,PingFang SC,Microsoft YaHei,sans-serif" font-size="13" font-weight="400" fill="#485365" text-anchor="start"><tspan x="22" y="469.3">第 12 章 · 当前选段</tspan><tspan x="22" y="489.45">人物：林舟、青竹</tspan></text><path id="n1165" data-name="Divider" d="M 22 524 L 322 524" fill="none" stroke="#DEDCD5" stroke-width="1" stroke-linecap="round" stroke-linejoin="round"/><text id="n1166" data-name="还有 2 个可选方向" font-family="Noto Sans SC,Noto Sans CJK SC,PingFang SC,Microsoft YaHei,sans-serif" font-size="14" font-weight="400" fill="#1E2A3B" text-anchor="start"><tspan x="22" y="560.4">还有 2 个可选方向</tspan></text><text id="n1167" data-name="不会自动修改正文或采用新设定。" font-family="Noto Sans SC,Noto Sans CJK SC,PingFang SC,Microsoft YaHei,sans-serif" font-size="12" font-weight="400" fill="#667281" text-anchor="start"><tspan x="22" y="603.2">不会自动修改正文或采用新设定。</tspan></text><g id="n1168" data-name="Button / 展开其他想法" data-target="S09" tabindex="0" role="button" aria-label="Button / 展开其他想法" transform="translate(22,630)"><text id="n1169" data-name="展开其他想法" font-family="Noto Sans SC,Noto Sans CJK SC,PingFang SC,Microsoft YaHei,sans-serif" font-size="14" font-weight="500" fill="#284C56" text-anchor="middle"><tspan x="150.0" y="26.550000000000004">展开其他想法</tspan></text></g></g></g></svg>