<svg xmlns="http://www.w3.org/2000/svg" width="1440" height="960" viewBox="0 0 1440 960" role="img" aria-label="进入一个故事，而不是配置一套系统"><title>进入一个故事，而不是配置一套系统</title><g id="n2987" data-name="S30 · 进入一个故事，而不是配置一套系统" transform="translate(0,0)"><rect width="1440" height="960" rx="0" fill="#F6F4F0" stroke="none" stroke-width="1"/><rect id="n2988" data-name="Surface" x="0" y="0" width="196" height="960" rx="0" fill="#FFFDF9" stroke="none"/><path id="n2989" data-name="Divider" d="M 196 0 L 196 960" fill="none" stroke="#DEDCD5" stroke-width="1" stroke-linecap="round" stroke-linejoin="round"/><rect id="n2990" data-name="Surface" x="22" y="23" width="32" height="32" rx="9" fill="#284C56" stroke="none"/><g id="n2991" data-name="Icon / book" transform="translate(28,28)"><path id="n2992" data-name="Stroke" d="M 3 4 Q 8 2 12 5 Q 16 2 21 4 L 21 20 Q 16 18 12 21 Q 8 18 3 20 Z M 12 5 L 12 21" fill="none" stroke="#FFFFFF" stroke-width="1.65" stroke-linecap="round" stroke-linejoin="round" transform="scale(0.8333333333333334)"/></g><text id="n2993" data-name="NovelCraft" font-family="Noto Sans SC,Noto Sans CJK SC,PingFang SC,Microsoft YaHei,sans-serif" font-size="18" font-weight="500" fill="#1E2A3B" text-anchor="start"><tspan x="66" y="40.8">NovelCraft</tspan></text><text id="n2994" data-name="我的作品" font-family="Noto Sans SC,Noto Sans CJK SC,PingFang SC,Microsoft YaHei,sans-serif" font-size="11" font-weight="500" fill="#667281" text-anchor="start"><tspan x="24" y="104.1">我的作品</tspan></text><text id="n2995" data-name="白石城来信" font-family="Noto Sans SC,Noto Sans CJK SC,PingFang SC,Microsoft YaHei,sans-serif" font-size="19" font-weight="700" fill="#1E2A3B" text-anchor="start"><tspan x="24" y="139.9">白石城来信</tspan></text><text id="n2996" data-name="长篇小说  /  作者工作区" font-family="Noto Sans SC,Noto Sans CJK SC,PingFang SC,Microsoft YaHei,sans-serif" font-size="11" font-weight="400" fill="#667281" text-anchor="start"><tspan x="24" y="163.1">长篇小说  /  作者工作区</tspan></text><rect id="n2997" data-name="Surface" x="12" y="205" width="172" height="44" rx="9" fill="#E5EEEB" stroke="none"/><g id="n2998" data-name="Navigation / 概览" data-target="S01" tabindex="0" role="button" aria-label="Navigation / 概览" transform="translate(24,212)"><g id="n2999" data-name="Icon / home" transform="translate(0,0)"><path id="n3000" data-name="Stroke" d="M 3 11 L 12 3 L 21 11 M 5 10 L 5 21 L 10 21 L 10 15 L 14 15 L 14 21 L 19 21 L 19 10" fill="none" stroke="#284C56" stroke-width="1.65" stroke-linecap="round" stroke-linejoin="round" transform="scale(0.8333333333333334)"/></g><text id="n3001" data-name="概览" font-family="Noto Sans SC,Noto Sans CJK SC,PingFang SC,Microsoft YaHei,sans-serif" font-size="14" font-weight="500" fill="#284C56" text-anchor="start"><tspan x="34" y="13.400000000000002">概览</tspan></text></g><g id="n3002" data-name="Navigation / 写作" data-target="S06" tabindex="0" role="button" aria-label="Navigation / 写作" transform="translate(24,264)"><g id="n3003" data-name="Icon / write" transform="translate(0,0)"><path id="n3004" data-name="Stroke" d="M 4 20 L 8 19 L 20 7 L 16 3 L 4 15 Z M 14 5 L 18 9 M 3 22 L 21 22" fill="none" stroke="#667281" stroke-width="1.65" stroke-linecap="round" stroke-linejoin="round" transform="scale(0.8333333333333334)"/></g><text id="n3005" data-name="写作" font-family="Noto Sans SC,Noto Sans CJK SC,PingFang SC,Microsoft YaHei,sans-serif" font-size="14" font-weight="400" fill="#485365" text-anchor="start"><tspan x="34" y="13.400000000000002">写作</tspan></text></g><g id="n3006" data-name="Navigation / 故事结构" data-target="S11" tabindex="0" role="button" aria-label="Navigation / 故事结构" transform="translate(24,316)"><g id="n3007" data-name="Icon / tree" transform="translate(0,0)"><path id="n3008" data-name="Stroke" d="M 5 3 L 5 19 L 19 19 M 5 7 L 19 7 M 12 7 L 12 13 L 19 13" fill="none" stroke="#667281" stroke-width="1.65" stroke-linecap="round" stroke-linejoin="round" transform="scale(0.8333333333333334)"/></g><text id="n3009" data-name="故事结构" font-family="Noto Sans SC,Noto Sans CJK SC,PingFang SC,Microsoft YaHei,sans-serif" font-size="14" font-weight="400" fill="#485365" text-anchor="start"><tspan x="34" y="13.400000000000002">故事结构</tspan></text></g><g id="n3010" data-name="Navigation / 世界资料" data-target="S13" tabindex="0" role="button" aria-label="Navigation / 世界资料" transform="translate(24,368)"><g id="n3011" data-name="Icon / world" transform="translate(0,0)"><path id="n3012" data-name="Stroke" d="M 3 12 A 9 9 0 1 0 21 12 A 9 9 0 1 0 3 12 M 3 12 L 21 12 M 12 3 C 5 9 5 15 12 21 C 19 15 19 9 12 3" fill="none" stroke="#667281" stroke-width="1.65" stroke-linecap="round" stroke-linejoin="round" transform="scale(0.8333333333333334)"/></g><text id="n3013" data-name="世界资料" font-family="Noto Sans SC,Noto Sans CJK SC,PingFang SC,Microsoft YaHei,sans-serif" font-size="14" font-weight="400" fill="#485365" text-anchor="start"><tspan x="34" y="13.400000000000002">世界资料</tspan></text></g><g id="n3014" data-name="Navigation / 故事地图" data-target="S20" tabindex="0" role="button" aria-label="Navigation / 故事地图" transform="translate(24,420)"><g id="n3015" data-name="Icon / map" transform="translate(0,0)"><path id="n3016" data-name="Stroke" d="M 2 5 L 8 2 L 16 5 L 22 2 L 22 19 L 16 22 L 8 19 L 2 22 Z M 8 2 L 8 19 M 16 5 L 16 22" fill="none" stroke="#667281" stroke-width="1.65" stroke-linecap="round" stroke-linejoin="round" transform="scale(0.8333333333333334)"/></g><text id="n3017" data-name="故事地图" font-family="Noto Sans SC,Noto Sans CJK SC,PingFang SC,Microsoft YaHei,sans-serif" font-size="14" font-weight="400" fill="#485365" text-anchor="start"><tspan x="34" y="13.400000000000002">故事地图</tspan></text></g><g id="n3018" data-name="Navigation / 待我决定" data-target="S16" tabindex="0" role="button" aria-label="Navigation / 待我决定" transform="translate(24,472)"><g id="n3019" data-name="Icon / check" transform="translate(0,0)"><path id="n3020" data-name="Stroke" d="M 4 12 L 9 17 L 20 5" fill="none" stroke="#667281" stroke-width="1.65" stroke-linecap="round" stroke-linejoin="round" transform="scale(0.8333333333333334)"/></g><text id="n3021" data-name="待我决定" font-family="Noto Sans SC,Noto Sans CJK SC,PingFang SC,Microsoft YaHei,sans-serif" font-size="14" font-weight="400" fill="#485365" text-anchor="start"><tspan x="34" y="13.400000000000002">待我决定</tspan></text></g><path id="n3022" data-name="Divider" d="M 24 552 L 172 552" fill="none" stroke="#DEDCD5" stroke-width="1" stroke-linecap="round" stroke-linejoin="round"/><text id="n3023" data-name="工作状态" font-family="Noto Sans SC,Noto Sans CJK SC,PingFang SC,Microsoft YaHei,sans-serif" font-size="11" font-weight="500" fill="#667281" text-anchor="start"><tspan x="24" y="591.1">工作状态</tspan></text><ellipse id="n3024" data-name="Ellipse" cx="28.0" cy="624.0" rx="3.0" ry="3.0" fill="#326F62" stroke="none" stroke-width="1"/><text id="n3025" data-name="理解已更新至第 12 章" font-family="Noto Sans SC,Noto Sans CJK SC,PingFang SC,Microsoft YaHei,sans-serif" font-size="11" font-weight="400" fill="#485365" text-anchor="start"><tspan x="39" y="624.1">理解已更新至第 12 章</tspan></text><text id="n3026" data-name="1 项需要你决定" font-family="Noto Sans SC,Noto Sans CJK SC,PingFang SC,Microsoft YaHei,sans-serif" font-size="12" font-weight="400" fill="#91601D" text-anchor="start"><tspan x="24" y="660.2">1 项需要你决定</tspan></text><g id="n3027" data-name="Navigation / 运行与恢复" data-target="S28" tabindex="0" role="button" aria-label="Navigation / 运行与恢复" transform="translate(24,793)"><g id="n3028" data-name="Icon / clock" transform="translate(0,0)"><path id="n3029" data-name="Stroke" d="M 3 12 A 9 9 0 1 0 21 12 A 9 9 0 1 0 3 12 M 12 6 L 12 12 L 17 15" fill="none" stroke="#667281" stroke-width="1.65" stroke-linecap="round" stroke-linejoin="round" transform="scale(0.75)"/></g><text id="n3030" data-name="运行与恢复" font-family="Noto Sans SC,Noto Sans CJK SC,PingFang SC,Microsoft YaHei,sans-serif" font-size="12" font-weight="400" fill="#485365" text-anchor="start"><tspan x="32" y="11.200000000000001">运行与恢复</tspan></text></g><g id="n3031" data-name="Navigation / 模型与授权" data-target="S29" tabindex="0" role="button" aria-label="Navigation / 模型与授权" transform="translate(24,841)"><g id="n3032" data-name="Icon / settings" transform="translate(0,0)"><path id="n3033" data-name="Stroke" d="M 4 7 L 20 7 M 4 17 L 20 17 M 9 3 L 9 11 M 16 13 L 16 21" fill="none" stroke="#667281" stroke-width="1.65" stroke-linecap="round" stroke-linejoin="round" transform="scale(0.75)"/></g><text id="n3034" data-name="模型与授权" font-family="Noto Sans SC,Noto Sans CJK SC,PingFang SC,Microsoft YaHei,sans-serif" font-size="12" font-weight="400" fill="#485365" text-anchor="start"><tspan x="32" y="11.200000000000001">模型与授权</tspan></text></g><text id="n3035" data-name="V4 设计样例 · 非生产数据" font-family="Noto Sans SC,Noto Sans CJK SC,PingFang SC,Microsoft YaHei,sans-serif" font-size="10" font-weight="400" fill="#667281" text-anchor="start"><tspan x="24" y="929.0">V4 设计样例 · 非生产数据</tspan></text><rect id="n3036" data-name="Surface" x="197" y="0" width="1243" height="64" rx="0" fill="#FFFDF9" stroke="none"/><path id="n3037" data-name="Divider" d="M 196 64 L 1440 64" fill="none" stroke="#DEDCD5" stroke-width="1" stroke-linecap="round" stroke-linejoin="round"/><text id="n3038" data-name="白石城来信" font-family="Noto Sans SC,Noto Sans CJK SC,PingFang SC,Microsoft YaHei,sans-serif" font-size="13" font-weight="400" fill="#485365" text-anchor="start"><tspan x="228" y="33.3">白石城来信</tspan></text><text id="n3039" data-name="/  私人故事 / 开场" font-family="Noto Sans SC,Noto Sans CJK SC,PingFang SC,Microsoft YaHei,sans-serif" font-size="13" font-weight="400" fill="#667281" text-anchor="start"><tspan x="359" y="33.3">/  私人故事 / 开场</tspan></text><g id="n3040" data-name="Command search" data-target="S42" tabindex="0" role="button" aria-label="Command search" transform="translate(932,12)"><rect width="258" height="40" rx="10" fill="#F6F4F0" stroke="none" stroke-width="1"/><g id="n3041" data-name="Icon / search" transform="translate(13,10)"><path id="n3042" data-name="Stroke" d="M 16 10 A 6 6 0 1 0 4 10 A 6 6 0 1 0 16 10 M 15 15 L 22 22" fill="none" stroke="#667281" stroke-width="1.65" stroke-linecap="round" stroke-linejoin="round" transform="scale(0.7083333333333334)"/></g><text id="n3043" data-name="找人物、场景、原文…" font-family="Noto Sans SC,Noto Sans CJK SC,PingFang SC,Microsoft YaHei,sans-serif" font-size="12" font-weight="400" fill="#667281" text-anchor="start"><tspan x="42" y="22.200000000000003">找人物、场景、原文…</tspan></text></g><g id="n3044" data-name="Status / 已保存" transform="translate(1210,18)"><rect width="72" height="28" rx="7" fill="#E8F1EB" stroke="none" stroke-width="1"/><text id="n3045" data-name="已保存" font-family="Noto Sans SC,Noto Sans CJK SC,PingFang SC,Microsoft YaHei,sans-serif" font-size="12" font-weight="500" fill="#326F62" text-anchor="middle"><tspan x="36.0" y="17.200000000000003">已保存</tspan></text></g><g id="n3046" data-name="Button / 项目设置" data-target="S32" tabindex="0" role="button" aria-label="Button / 项目设置" transform="translate(1300,10)"><text id="n3047" data-name="项目设置" font-family="Noto Sans SC,Noto Sans CJK SC,PingFang SC,Microsoft YaHei,sans-serif" font-size="12" font-weight="500" fill="#284C56" text-anchor="middle"><tspan x="55.0" y="25.9">项目设置</tspan></text></g><text id="n3048" data-name="进入一个故事，而不是配置一套系统" font-family="Noto Sans SC,Noto Sans CJK SC,PingFang SC,Microsoft YaHei,sans-serif" font-size="28" font-weight="700" fill="#1E2A3B" text-anchor="start"><tspan x="228" y="126.80000000000001">进入一个故事，而不是配置一套系统</tspan></text><text id="n3049" data-name="作者作品与私人旅程隔离；旅程固定资料版本和阅读截止，不写回原作。" font-family="Noto Sans SC,Noto Sans CJK SC,PingFang SC,Microsoft YaHei,sans-serif" font-size="13" font-weight="400" fill="#667281" text-anchor="start"><tspan x="228" y="155.3">作者作品与私人旅程隔离；旅程固定资料版本和阅读截止，不写回原作。</tspan></text><g id="n3050" data-name="Panel" transform="translate(228,190)"><rect width="748" height="698" rx="16" fill="#FFFDF9" stroke="#DEDCD5" stroke-width="1"/><g id="n3051" data-name="白石城 / 场景插画" transform="translate(22,22)"><rect width="704" height="256" rx="14" fill="#182B36" stroke="none" stroke-width="1"/><defs><clipPath id="clip-n3051"><rect width="704" height="256" rx="14"/></clipPath></defs><g clip-path="url(#clip-n3051)"><rect id="n3052" data-name="Surface" x="0" y="0" width="704" height="256" rx="14" fill="#162E3A" stroke="none"/><ellipse id="n3053" data-name="Ellipse" cx="506.88000000000005" cy="48.64" rx="28.16" ry="28.16" fill="#D4C5A0" stroke="none" stroke-width="1" opacity="0.8"/><path id="n3054" data-name="Mountain ridge" d="M 0 138.24 C 133.76 12.8 183.04000000000002 128.0 281.6 79.36 S 457.6 43.52 704 148.48 L 704 256 L 0 256 Z" fill="#345157" stroke="none" stroke-width="1" stroke-linecap="round" stroke-linejoin="round"/><path id="n3055" data-name="Mountain ridge" d="M 0 183.24 C 133.76 57.8 183.04000000000002 173.0 281.6 124.36 S 457.6 88.52000000000001 704 193.48 L 704 256 L 0 256 Z" fill="#28454D" stroke="none" stroke-width="1" stroke-linecap="round" stroke-linejoin="round"/><path id="n3056" data-name="Mountain ridge" d="M 0 233.24 C 133.76 107.8 183.04000000000002 223.0 281.6 174.36 S 457.6 138.52 704 243.48 L 704 256 L 0 256 Z" fill="#203E49" stroke="none" stroke-width="1" stroke-linecap="round" stroke-linejoin="round"/><path id="n3057" data-name="River light" d="M 105.6 256 C 316.8 135.68 366.08000000000004 204.8 513.92 125.44 L 570.24 128.0 C 401.28 238.08 344.96 199.68 323.84000000000003 256 Z" fill="#5B8188" stroke="none" stroke-width="1" stroke-linecap="round" stroke-linejoin="round"/><rect id="n3058" data-name="City building" x="253.44" y="110.08" width="16.896" height="17.92" rx="1" fill="#B8C7BC" stroke="none"/><path id="n3059" data-name="City roof" d="M 251.44 110.08 L 261.888 102.08 L 272.336 110.08 Z" fill="#44615C" stroke="none" stroke-width="1" stroke-linecap="round" stroke-linejoin="round"/><rect id="n3060" data-name="City building" x="273.856" y="102.912" width="16.896" height="25.088" rx="1" fill="#B8C7BC" stroke="none"/><path id="n3061" data-name="City roof" d="M 271.856 102.912 L 282.304 94.912 L 292.752 102.912 Z" fill="#44615C" stroke="none" stroke-width="1" stroke-linecap="round" stroke-linejoin="round"/><rect id="n3062" data-name="City building" x="294.272" y="95.744" width="16.896" height="32.256" rx="1" fill="#B8C7BC" stroke="none"/><path id="n3063" data-name="City roof" d="M 292.272 95.744 L 302.71999999999997 87.744 L 313.168 95.744 Z" fill="#44615C" stroke="none" stroke-width="1" stroke-linecap="round" stroke-linejoin="round"/><rect id="n3064" data-name="City building" x="314.688" y="106.496" width="16.896" height="21.504" rx="1" fill="#B8C7BC" stroke="none"/><path id="n3065" data-name="City roof" d="M 312.688 106.496 L 323.13599999999997 98.496 L 333.584 106.496 Z" fill="#44615C" stroke="none" stroke-width="1" stroke-linecap="round" stroke-linejoin="round"/><rect id="n3066" data-name="City building" x="335.104" y="99.328" width="16.896" height="28.672" rx="1" fill="#B8C7BC" stroke="none"/><path id="n3067" data-name="City roof" d="M 333.104 99.328 L 343.55199999999996 91.328 L 354.0 99.328 Z" fill="#44615C" stroke="none" stroke-width="1" stroke-linecap="round" stroke-linejoin="round"/><rect id="n3068" data-name="City building" x="355.52" y="110.08" width="16.896" height="17.92" rx="1" fill="#B8C7BC" stroke="none"/><path id="n3069" data-name="City roof" d="M 353.52 110.08 L 363.96799999999996 102.08 L 374.416 110.08 Z" fill="#44615C" stroke="none" stroke-width="1" stroke-linecap="round" stroke-linejoin="round"/><rect id="n3070" data-name="City building" x="375.936" y="102.912" width="16.896" height="25.088" rx="1" fill="#B8C7BC" stroke="none"/><path id="n3071" data-name="City roof" d="M 373.93600000000004 102.912 L 384.384 94.912 L 394.83200000000005 102.912 Z" fill="#44615C" stroke="none" stroke-width="1" stroke-linecap="round" stroke-linejoin="round"/><rect id="n3072" data-name="City building" x="396.352" y="95.744" width="16.896" height="32.256" rx="1" fill="#B8C7BC" stroke="none"/><path id="n3073" data-name="City roof" d="M 394.352 95.744 L 404.79999999999995 87.744 L 415.248 95.744 Z" fill="#44615C" stroke="none" stroke-width="1" stroke-linecap="round" stroke-linejoin="round"/><rect id="n3074" data-name="City building" x="416.768" y="106.496" width="16.896" height="21.504" rx="1" fill="#B8C7BC" stroke="none"/><path id="n3075" data-name="City roof" d="M 414.76800000000003 106.496 L 425.216 98.496 L 435.66400000000004 106.496 Z" fill="#44615C" stroke="none" stroke-width="1" stroke-linecap="round" stroke-linejoin="round"/><rect id="n3076" data-name="City building" x="437.184" y="99.328" width="16.896" height="28.672" rx="1" fill="#B8C7BC" stroke="none"/><path id="n3077" data-name="City roof" d="M 435.18399999999997 99.328 L 445.63199999999995 91.328 L 456.08 99.328 Z" fill="#44615C" stroke="none" stroke-width="1" stroke-linecap="round" stroke-linejoin="round"/><rect id="n3078" data-name="City building" x="457.6" y="110.08" width="16.896" height="17.92" rx="1" fill="#B8C7BC" stroke="none"/><path id="n3079" data-name="City roof" d="M 455.6 110.08 L 466.048 102.08 L 476.49600000000004 110.08 Z" fill="#44615C" stroke="none" stroke-width="1" stroke-linecap="round" stroke-linejoin="round"/><rect id="n3080" data-name="City building" x="478.016" y="102.912" width="16.896" height="25.088" rx="1" fill="#B8C7BC" stroke="none"/><path id="n3081" data-name="City roof" d="M 476.016 102.912 L 486.464 94.912 L 496.91200000000003 102.912 Z" fill="#44615C" stroke="none" stroke-width="1" stroke-linecap="round" stroke-linejoin="round"/><rect id="n3082" data-name="City wall" x="239.36" y="128.0" width="274.56" height="10.24" rx="0" fill="#849F96" stroke="none"/><path id="n3083" data-name="Foreground pine" d="M 17 164.88 L 5 194.88 L 29 194.88 Z" fill="#17333D" stroke="none" stroke-width="1" stroke-linecap="round" stroke-linejoin="round"/><path id="n3084" data-name="Foreground pine" d="M 84 178.96 L 72 208.96 L 96 208.96 Z" fill="#17333D" stroke="none" stroke-width="1" stroke-linecap="round" stroke-linejoin="round"/><path id="n3085" data-name="Foreground pine" d="M 151 193.04 L 139 223.04 L 163 223.04 Z" fill="#17333D" stroke="none" stroke-width="1" stroke-linecap="round" stroke-linejoin="round"/><path id="n3086" data-name="Foreground pine" d="M 218 164.88 L 206 194.88 L 230 194.88 Z" fill="#17333D" stroke="none" stroke-width="1" stroke-linecap="round" stroke-linejoin="round"/><path id="n3087" data-name="Foreground pine" d="M 285 178.96 L 273 208.96 L 297 208.96 Z" fill="#17333D" stroke="none" stroke-width="1" stroke-linecap="round" stroke-linejoin="round"/><path id="n3088" data-name="Foreground pine" d="M 352 193.04 L 340 223.04 L 364 223.04 Z" fill="#17333D" stroke="none" stroke-width="1" stroke-linecap="round" stroke-linejoin="round"/><path id="n3089" data-name="Foreground pine" d="M 419 164.88 L 407 194.88 L 431 194.88 Z" fill="#17333D" stroke="none" stroke-width="1" stroke-linecap="round" stroke-linejoin="round"/><path id="n3090" data-name="Foreground pine" d="M 486 178.96 L 474 208.96 L 498 208.96 Z" fill="#17333D" stroke="none" stroke-width="1" stroke-linecap="round" stroke-linejoin="round"/><path id="n3091" data-name="Foreground pine" d="M 553 193.04 L 541 223.04 L 565 223.04 Z" fill="#17333D" stroke="none" stroke-width="1" stroke-linecap="round" stroke-linejoin="round"/><path id="n3092" data-name="Foreground pine" d="M 620 164.88 L 608 194.88 L 632 194.88 Z" fill="#17333D" stroke="none" stroke-width="1" stroke-linecap="round" stroke-linejoin="round"/><path id="n3093" data-name="Foreground pine" d="M 687 178.96 L 675 208.96 L 699 208.96 Z" fill="#17333D" stroke="none" stroke-width="1" stroke-linecap="round" stroke-linejoin="round"/><path id="n3094" data-name="Foreground pine" d="M 50 193.04 L 38 223.04 L 62 223.04 Z" fill="#17333D" stroke="none" stroke-width="1" stroke-linecap="round" stroke-linejoin="round"/><path id="n3095" data-name="Foreground pine" d="M 117 164.88 L 105 194.88 L 129 194.88 Z" fill="#17333D" stroke="none" stroke-width="1" stroke-linecap="round" stroke-linejoin="round"/><path id="n3096" data-name="Foreground pine" d="M 184 178.96 L 172 208.96 L 196 208.96 Z" fill="#17333D" stroke="none" stroke-width="1" stroke-linecap="round" stroke-linejoin="round"/><path id="n3097" data-name="Foreground pine" d="M 251 193.04 L 239 223.04 L 263 223.04 Z" fill="#17333D" stroke="none" stroke-width="1" stroke-linecap="round" stroke-linejoin="round"/><path id="n3098" data-name="Foreground pine" d="M 318 164.88 L 306 194.88 L 330 194.88 Z" fill="#17333D" stroke="none" stroke-width="1" stroke-linecap="round" stroke-linejoin="round"/><path id="n3099" data-name="Foreground pine" d="M 385 178.96 L 373 208.96 L 397 208.96 Z" fill="#17333D" stroke="none" stroke-width="1" stroke-linecap="round" stroke-linejoin="round"/></g></g><text id="n3100" data-name="白石城来信" font-family="Noto Sans SC,Noto Sans CJK SC,PingFang SC,Microsoft YaHei,sans-serif" font-size="28" font-weight="500" fill="#1E2A3B" text-anchor="start"><tspan x="24" y="336.8">白石城来信</tspan></text><text id="n3101" data-name="我想成为…" font-family="Noto Sans SC,Noto Sans CJK SC,PingFang SC,Microsoft YaHei,sans-serif" font-size="13" font-weight="500" fill="#667281" text-anchor="start"><tspan x="24" y="381.3">我想成为…</tspan></text><rect id="n3102" data-name="Surface" x="24" y="405" width="700" height="109" rx="10" fill="#F6F4F0" stroke="none"/><text id="n3103" data-name="一个刚来到白石城的送信人。 我只知道城门将在天黑后关闭。" font-family="Noto Sans SC,Noto Sans CJK SC,PingFang SC,Microsoft YaHei,sans-serif" font-size="18" font-weight="400" fill="#485365" text-anchor="start"><tspan x="42" y="448.8">一个刚来到白石城的送信人。</tspan><tspan x="42" y="476.7">我只知道城门将在天黑后关闭。</tspan></text><g id="n3104" data-name="Button / 以这个身份开始" data-target="S31" tabindex="0" role="button" aria-label="Button / 以这个身份开始" transform="translate(24,610)"><rect width="700" height="44" rx="10" fill="#284C56" stroke="none" stroke-width="1"/><text id="n3105" data-name="以这个身份开始" font-family="Noto Sans SC,Noto Sans CJK SC,PingFang SC,Microsoft YaHei,sans-serif" font-size="14" font-weight="500" fill="#FFFFFF" text-anchor="middle"><tspan x="350.0" y="26.550000000000004">以这个身份开始</tspan></text></g></g><g id="n3106" data-name="Panel" transform="translate(1000,190)"><rect width="412" height="698" rx="16" fill="#FFFDF9" stroke="#DEDCD5" stroke-width="1"/><text id="n3107" data-name="故事从哪里开始" font-family="Noto Sans SC,Noto Sans CJK SC,PingFang SC,Microsoft YaHei,sans-serif" font-size="22" font-weight="500" fill="#1E2A3B" text-anchor="start"><tspan x="24" y="48.2">故事从哪里开始</tspan></text><g id="n3108" data-name="Status / 资料固定至第 8 章" transform="translate(24,86)"><rect width="364" height="28" rx="7" fill="#E5EEEB" stroke="none" stroke-width="1"/><text id="n3109" data-name="资料固定至第 8 章" font-family="Noto Sans SC,Noto Sans CJK SC,PingFang SC,Microsoft YaHei,sans-serif" font-size="12" font-weight="500" fill="#284C56" text-anchor="middle"><tspan x="182.0" y="17.200000000000003">资料固定至第 8 章</tspan></text></g><text id="n3110" data-name="你与角色不会默认知道后文身份。 尚未消歧的关键信息会在开场前提示。" font-family="Noto Sans SC,Noto Sans CJK SC,PingFang SC,Microsoft YaHei,sans-serif" font-size="17" font-weight="400" fill="#485365" text-anchor="start"><tspan x="24" y="163.7">你与角色不会默认知道后文身份。</tspan><tspan x="24" y="190.04999999999998">尚未消歧的关键信息会在开场前提示。</tspan></text><path id="n3111" data-name="Divider" d="M 24 280 L 388 280" fill="none" stroke="#DEDCD5" stroke-width="1" stroke-linecap="round" stroke-linejoin="round"/><text id="n3112" data-name="你的私人分支" font-family="Noto Sans SC,Noto Sans CJK SC,PingFang SC,Microsoft YaHei,sans-serif" font-size="20" font-weight="500" fill="#1E2A3B" text-anchor="start"><tspan x="24" y="343.0">你的私人分支</tspan></text><text id="n3113" data-name="重新生成会新建分支，旧内容不覆盖。 只有选中的故事继续进入后续上下文。" font-family="Noto Sans SC,Noto Sans CJK SC,PingFang SC,Microsoft YaHei,sans-serif" font-size="16" font-weight="400" fill="#485365" text-anchor="start"><tspan x="24" y="391.6">重新生成会新建分支，旧内容不覆盖。</tspan><tspan x="24" y="416.40000000000003">只有选中的故事继续进入后续上下文。</tspan></text><g id="n3114" data-name="Button / 核对原作资料与截止点" data-target="S36" tabindex="0" role="button" aria-label="Button / 核对原作资料与截止点" transform="translate(24,567)"><rect width="364" height="44" rx="10" fill="#FFFDF9" stroke="#DEDCD5" stroke-width="1"/><text id="n3115" data-name="核对原作资料与截止点" font-family="Noto Sans SC,Noto Sans CJK SC,PingFang SC,Microsoft YaHei,sans-serif" font-size="14" font-weight="500" fill="#1E2A3B" text-anchor="middle"><tspan x="182.0" y="26.550000000000004">核对原作资料与截止点</tspan></text></g></g></g></svg>