<svg xmlns="http://www.w3.org/2000/svg" width="1440" height="960" viewBox="0 0 1440 960" role="img" aria-label="先写一句，世界会逐渐长出来"><title>先写一句，世界会逐渐长出来</title><g id="n3356" data-name="S34 · 先写一句，世界会逐渐长出来" transform="translate(0,0)"><rect width="1440" height="960" rx="0" fill="#F6F4F0" stroke="none" stroke-width="1"/><rect id="n3357" data-name="Surface" x="0" y="0" width="196" height="960" rx="0" fill="#FFFDF9" stroke="none"/><path id="n3358" data-name="Divider" d="M 196 0 L 196 960" fill="none" stroke="#DEDCD5" stroke-width="1" stroke-linecap="round" stroke-linejoin="round"/><rect id="n3359" data-name="Surface" x="22" y="23" width="32" height="32" rx="9" fill="#284C56" stroke="none"/><g id="n3360" data-name="Icon / book" transform="translate(28,28)"><path id="n3361" data-name="Stroke" d="M 3 4 Q 8 2 12 5 Q 16 2 21 4 L 21 20 Q 16 18 12 21 Q 8 18 3 20 Z M 12 5 L 12 21" fill="none" stroke="#FFFFFF" stroke-width="1.65" stroke-linecap="round" stroke-linejoin="round" transform="scale(0.8333333333333334)"/></g><text id="n3362" data-name="NovelCraft" font-family="Noto Sans SC,Noto Sans CJK SC,PingFang SC,Microsoft YaHei,sans-serif" font-size="18" font-weight="500" fill="#1E2A3B" text-anchor="start"><tspan x="66" y="40.8">NovelCraft</tspan></text><text id="n3363" data-name="我的作品" font-family="Noto Sans SC,Noto Sans CJK SC,PingFang SC,Microsoft YaHei,sans-serif" font-size="11" font-weight="500" fill="#667281" text-anchor="start"><tspan x="24" y="104.1">我的作品</tspan></text><text id="n3364" data-name="白石城来信" font-family="Noto Sans SC,Noto Sans CJK SC,PingFang SC,Microsoft YaHei,sans-serif" font-size="19" font-weight="700" fill="#1E2A3B" text-anchor="start"><tspan x="24" y="139.9">白石城来信</tspan></text><text id="n3365" data-name="长篇小说  /  作者工作区" font-family="Noto Sans SC,Noto Sans CJK SC,PingFang SC,Microsoft YaHei,sans-serif" font-size="11" font-weight="400" fill="#667281" text-anchor="start"><tspan x="24" y="163.1">长篇小说  /  作者工作区</tspan></text><g id="n3366" data-name="Navigation / 概览" data-target="S01" tabindex="0" role="button" aria-label="Navigation / 概览" transform="translate(24,212)"><g id="n3367" data-name="Icon / home" transform="translate(0,0)"><path id="n3368" data-name="Stroke" d="M 3 11 L 12 3 L 21 11 M 5 10 L 5 21 L 10 21 L 10 15 L 14 15 L 14 21 L 19 21 L 19 10" fill="none" stroke="#667281" stroke-width="1.65" stroke-linecap="round" stroke-linejoin="round" transform="scale(0.8333333333333334)"/></g><text id="n3369" data-name="概览" font-family="Noto Sans SC,Noto Sans CJK SC,PingFang SC,Microsoft YaHei,sans-serif" font-size="14" font-weight="400" fill="#485365" text-anchor="start"><tspan x="34" y="13.400000000000002">概览</tspan></text></g><rect id="n3370" data-name="Surface" x="12" y="257" width="172" height="44" rx="9" fill="#E5EEEB" stroke="none"/><g id="n3371" data-name="Navigation / 写作" data-target="S06" tabindex="0" role="button" aria-label="Navigation / 写作" transform="translate(24,264)"><g id="n3372" data-name="Icon / write" transform="translate(0,0)"><path id="n3373" data-name="Stroke" d="M 4 20 L 8 19 L 20 7 L 16 3 L 4 15 Z M 14 5 L 18 9 M 3 22 L 21 22" fill="none" stroke="#284C56" stroke-width="1.65" stroke-linecap="round" stroke-linejoin="round" transform="scale(0.8333333333333334)"/></g><text id="n3374" data-name="写作" font-family="Noto Sans SC,Noto Sans CJK SC,PingFang SC,Microsoft YaHei,sans-serif" font-size="14" font-weight="500" fill="#284C56" text-anchor="start"><tspan x="34" y="13.400000000000002">写作</tspan></text></g><g id="n3375" data-name="Navigation / 故事结构" data-target="S11" tabindex="0" role="button" aria-label="Navigation / 故事结构" transform="translate(24,316)"><g id="n3376" data-name="Icon / tree" transform="translate(0,0)"><path id="n3377" data-name="Stroke" d="M 5 3 L 5 19 L 19 19 M 5 7 L 19 7 M 12 7 L 12 13 L 19 13" fill="none" stroke="#667281" stroke-width="1.65" stroke-linecap="round" stroke-linejoin="round" transform="scale(0.8333333333333334)"/></g><text id="n3378" data-name="故事结构" font-family="Noto Sans SC,Noto Sans CJK SC,PingFang SC,Microsoft YaHei,sans-serif" font-size="14" font-weight="400" fill="#485365" text-anchor="start"><tspan x="34" y="13.400000000000002">故事结构</tspan></text></g><g id="n3379" data-name="Navigation / 世界资料" data-target="S13" tabindex="0" role="button" aria-label="Navigation / 世界资料" transform="translate(24,368)"><g id="n3380" data-name="Icon / world" transform="translate(0,0)"><path id="n3381" data-name="Stroke" d="M 3 12 A 9 9 0 1 0 21 12 A 9 9 0 1 0 3 12 M 3 12 L 21 12 M 12 3 C 5 9 5 15 12 21 C 19 15 19 9 12 3" fill="none" stroke="#667281" stroke-width="1.65" stroke-linecap="round" stroke-linejoin="round" transform="scale(0.8333333333333334)"/></g><text id="n3382" data-name="世界资料" font-family="Noto Sans SC,Noto Sans CJK SC,PingFang SC,Microsoft YaHei,sans-serif" font-size="14" font-weight="400" fill="#485365" text-anchor="start"><tspan x="34" y="13.400000000000002">世界资料</tspan></text></g><g id="n3383" data-name="Navigation / 故事地图" data-target="S20" tabindex="0" role="button" aria-label="Navigation / 故事地图" transform="translate(24,420)"><g id="n3384" data-name="Icon / map" transform="translate(0,0)"><path id="n3385" data-name="Stroke" d="M 2 5 L 8 2 L 16 5 L 22 2 L 22 19 L 16 22 L 8 19 L 2 22 Z M 8 2 L 8 19 M 16 5 L 16 22" fill="none" stroke="#667281" stroke-width="1.65" stroke-linecap="round" stroke-linejoin="round" transform="scale(0.8333333333333334)"/></g><text id="n3386" data-name="故事地图" font-family="Noto Sans SC,Noto Sans CJK SC,PingFang SC,Microsoft YaHei,sans-serif" font-size="14" font-weight="400" fill="#485365" text-anchor="start"><tspan x="34" y="13.400000000000002">故事地图</tspan></text></g><g id="n3387" data-name="Navigation / 待我决定" data-target="S16" tabindex="0" role="button" aria-label="Navigation / 待我决定" transform="translate(24,472)"><g id="n3388" data-name="Icon / check" transform="translate(0,0)"><path id="n3389" data-name="Stroke" d="M 4 12 L 9 17 L 20 5" fill="none" stroke="#667281" stroke-width="1.65" stroke-linecap="round" stroke-linejoin="round" transform="scale(0.8333333333333334)"/></g><text id="n3390" data-name="待我决定" font-family="Noto Sans SC,Noto Sans CJK SC,PingFang SC,Microsoft YaHei,sans-serif" font-size="14" font-weight="400" fill="#485365" text-anchor="start"><tspan x="34" y="13.400000000000002">待我决定</tspan></text></g><path id="n3391" data-name="Divider" d="M 24 552 L 172 552" fill="none" stroke="#DEDCD5" stroke-width="1" stroke-linecap="round" stroke-linejoin="round"/><text id="n3392" data-name="工作状态" font-family="Noto Sans SC,Noto Sans CJK SC,PingFang SC,Microsoft YaHei,sans-serif" font-size="11" font-weight="500" fill="#667281" text-anchor="start"><tspan x="24" y="591.1">工作状态</tspan></text><ellipse id="n3393" data-name="Ellipse" cx="28.0" cy="624.0" rx="3.0" ry="3.0" fill="#326F62" stroke="none" stroke-width="1"/><text id="n3394" data-name="尚未开始理解" font-family="Noto Sans SC,Noto Sans CJK SC,PingFang SC,Microsoft YaHei,sans-serif" font-size="11" font-weight="400" fill="#485365" text-anchor="start"><tspan x="39" y="624.1">尚未开始理解</tspan></text><text id="n3395" data-name="从你的原文开始" font-family="Noto Sans SC,Noto Sans CJK SC,PingFang SC,Microsoft YaHei,sans-serif" font-size="12" font-weight="400" fill="#91601D" text-anchor="start"><tspan x="24" y="660.2">从你的原文开始</tspan></text><g id="n3396" data-name="Navigation / 运行与恢复" data-target="S28" tabindex="0" role="button" aria-label="Navigation / 运行与恢复" transform="translate(24,793)"><g id="n3397" data-name="Icon / clock" transform="translate(0,0)"><path id="n3398" data-name="Stroke" d="M 3 12 A 9 9 0 1 0 21 12 A 9 9 0 1 0 3 12 M 12 6 L 12 12 L 17 15" fill="none" stroke="#667281" stroke-width="1.65" stroke-linecap="round" stroke-linejoin="round" transform="scale(0.75)"/></g><text id="n3399" data-name="运行与恢复" font-family="Noto Sans SC,Noto Sans CJK SC,PingFang SC,Microsoft YaHei,sans-serif" font-size="12" font-weight="400" fill="#485365" text-anchor="start"><tspan x="32" y="11.200000000000001">运行与恢复</tspan></text></g><g id="n3400" data-name="Navigation / 模型与授权" data-target="S29" tabindex="0" role="button" aria-label="Navigation / 模型与授权" transform="translate(24,841)"><g id="n3401" data-name="Icon / settings" transform="translate(0,0)"><path id="n3402" data-name="Stroke" d="M 4 7 L 20 7 M 4 17 L 20 17 M 9 3 L 9 11 M 16 13 L 16 21" fill="none" stroke="#667281" stroke-width="1.65" stroke-linecap="round" stroke-linejoin="round" transform="scale(0.75)"/></g><text id="n3403" data-name="模型与授权" font-family="Noto Sans SC,Noto Sans CJK SC,PingFang SC,Microsoft YaHei,sans-serif" font-size="12" font-weight="400" fill="#485365" text-anchor="start"><tspan x="32" y="11.200000000000001">模型与授权</tspan></text></g><text id="n3404" data-name="V4 设计样例 · 非生产数据" font-family="Noto Sans SC,Noto Sans CJK SC,PingFang SC,Microsoft YaHei,sans-serif" font-size="10" font-weight="400" fill="#667281" text-anchor="start"><tspan x="24" y="929.0">V4 设计样例 · 非生产数据</tspan></text><rect id="n3405" data-name="Surface" x="197" y="0" width="1243" height="64" rx="0" fill="#FFFDF9" stroke="none"/><path id="n3406" data-name="Divider" d="M 196 64 L 1440 64" fill="none" stroke="#DEDCD5" stroke-width="1" stroke-linecap="round" stroke-linejoin="round"/><text id="n3407" data-name="白石城来信" font-family="Noto Sans SC,Noto Sans CJK SC,PingFang SC,Microsoft YaHei,sans-serif" font-size="13" font-weight="400" fill="#485365" text-anchor="start"><tspan x="228" y="33.3">白石城来信</tspan></text><text id="n3408" data-name="/  首次空态" font-family="Noto Sans SC,Noto Sans CJK SC,PingFang SC,Microsoft YaHei,sans-serif" font-size="13" font-weight="400" fill="#667281" text-anchor="start"><tspan x="359" y="33.3">/  首次空态</tspan></text><g id="n3409" data-name="Command search" data-target="S42" tabindex="0" role="button" aria-label="Command search" transform="translate(932,12)"><rect width="258" height="40" rx="10" fill="#F6F4F0" stroke="none" stroke-width="1"/><g id="n3410" data-name="Icon / search" transform="translate(13,10)"><path id="n3411" data-name="Stroke" d="M 16 10 A 6 6 0 1 0 4 10 A 6 6 0 1 0 16 10 M 15 15 L 22 22" fill="none" stroke="#667281" stroke-width="1.65" stroke-linecap="round" stroke-linejoin="round" transform="scale(0.7083333333333334)"/></g><text id="n3412" data-name="找人物、场景、原文…" font-family="Noto Sans SC,Noto Sans CJK SC,PingFang SC,Microsoft YaHei,sans-serif" font-size="12" font-weight="400" fill="#667281" text-anchor="start"><tspan x="42" y="22.200000000000003">找人物、场景、原文…</tspan></text></g><g id="n3413" data-name="Status / 未开始" transform="translate(1210,18)"><rect width="72" height="28" rx="7" fill="#E5EEEB" stroke="none" stroke-width="1"/><text id="n3414" data-name="未开始" font-family="Noto Sans SC,Noto Sans CJK SC,PingFang SC,Microsoft YaHei,sans-serif" font-size="12" font-weight="500" fill="#284C56" text-anchor="middle"><tspan x="36.0" y="17.200000000000003">未开始</tspan></text></g><g id="n3415" data-name="Button / 项目设置" data-target="S32" tabindex="0" role="button" aria-label="Button / 项目设置" transform="translate(1300,10)"><text id="n3416" data-name="项目设置" font-family="Noto Sans SC,Noto Sans CJK SC,PingFang SC,Microsoft YaHei,sans-serif" font-size="12" font-weight="500" fill="#284C56" text-anchor="middle"><tspan x="55.0" y="25.9">项目设置</tspan></text></g><text id="n3417" data-name="先写一句，世界会逐渐长出来" font-family="Noto Sans SC,Noto Sans CJK SC,PingFang SC,Microsoft YaHei,sans-serif" font-size="28" font-weight="700" fill="#1E2A3B" text-anchor="start"><tspan x="228" y="126.80000000000001">先写一句，世界会逐渐长出来</tspan></text><text id="n3418" data-name="不需要先建完人物、地图和大纲。系统从你已有的材料开始。" font-family="Noto Sans SC,Noto Sans CJK SC,PingFang SC,Microsoft YaHei,sans-serif" font-size="13" font-weight="400" fill="#667281" text-anchor="start"><tspan x="228" y="155.3">不需要先建完人物、地图和大纲。系统从你已有的材料开始。</tspan></text><g id="n3419" data-name="Panel" transform="translate(228,190)"><rect width="1184" height="698" rx="16" fill="#FFFDF9" stroke="#DEDCD5" stroke-width="1"/><g id="n3420" data-name="白石城 / 场景插画" transform="translate(737,43)"><rect width="402" height="424" rx="14" fill="#E4E9E2" stroke="none" stroke-width="1"/><defs><clipPath id="clip-n3420"><rect width="402" height="424" rx="14"/></clipPath></defs><g clip-path="url(#clip-n3420)"><rect id="n3421" data-name="Surface" x="0" y="0" width="402" height="424" rx="14" fill="#DCE7E4" stroke="none"/><ellipse id="n3422" data-name="Ellipse" cx="320.0" cy="80.56" rx="46.64" ry="46.64" fill="#FCF2D4" stroke="none" stroke-width="1" opacity="0.8"/><path id="n3423" data-name="Mountain ridge" d="M 0 228.96 C 76.38 21.200000000000003 104.52000000000001 212.0 160.8 131.44 S 261.3 72.08 402 245.92 L 402 424 L 0 424 Z" fill="#78978B" stroke="none" stroke-width="1" stroke-linecap="round" stroke-linejoin="round"/><path id="n3424" data-name="Mountain ridge" d="M 0 273.96000000000004 C 76.38 66.2 104.52000000000001 257.0 160.8 176.44 S 261.3 117.08 402 290.91999999999996 L 402 424 L 0 424 Z" fill="#5F8179" stroke="none" stroke-width="1" stroke-linecap="round" stroke-linejoin="round"/><path id="n3425" data-name="Mountain ridge" d="M 0 323.96000000000004 C 76.38 116.2 104.52000000000001 307.0 160.8 226.44 S 261.3 167.07999999999998 402 340.91999999999996 L 402 424 L 0 424 Z" fill="#466B64" stroke="none" stroke-width="1" stroke-linecap="round" stroke-linejoin="round"/><path id="n3426" data-name="River light" d="M 60.3 424 C 180.9 224.72 209.04000000000002 339.20000000000005 293.46 207.76 L 325.62 212.0 C 229.14 394.32 196.98 330.72 184.92000000000002 424 Z" fill="#A5C1B7" stroke="none" stroke-width="1" stroke-linecap="round" stroke-linejoin="round"/><rect id="n3427" data-name="City building" x="144.72" y="182.32" width="9.648" height="29.68" rx="1" fill="#E6DEC8" stroke="none"/><path id="n3428" data-name="City roof" d="M 142.72 182.32 L 149.544 174.32 L 156.368 182.32 Z" fill="#44615C" stroke="none" stroke-width="1" stroke-linecap="round" stroke-linejoin="round"/><rect id="n3429" data-name="City building" x="156.378" y="170.448" width="9.648" height="41.552" rx="1" fill="#E6DEC8" stroke="none"/><path id="n3430" data-name="City roof" d="M 154.378 170.448 L 161.202 162.448 L 168.02599999999998 170.448 Z" fill="#44615C" stroke="none" stroke-width="1" stroke-linecap="round" stroke-linejoin="round"/><rect id="n3431" data-name="City building" x="168.036" y="158.576" width="9.648" height="53.424" rx="1" fill="#E6DEC8" stroke="none"/><path id="n3432" data-name="City roof" d="M 166.036 158.576 L 172.86 150.576 L 179.684 158.576 Z" fill="#44615C" stroke="none" stroke-width="1" stroke-linecap="round" stroke-linejoin="round"/><rect id="n3433" data-name="City building" x="179.694" y="176.384" width="9.648" height="35.616" rx="1" fill="#E6DEC8" stroke="none"/><path id="n3434" data-name="City roof" d="M 177.69400000000002 176.38400000000001 L 184.51800000000003 168.38400000000001 L 191.342 176.38400000000001 Z" fill="#44615C" stroke="none" stroke-width="1" stroke-linecap="round" stroke-linejoin="round"/><rect id="n3435" data-name="City building" x="191.352" y="164.512" width="9.648" height="47.488" rx="1" fill="#E6DEC8" stroke="none"/><path id="n3436" data-name="City roof" d="M 189.352 164.512 L 196.17600000000002 156.512 L 203.0 164.512 Z" fill="#44615C" stroke="none" stroke-width="1" stroke-linecap="round" stroke-linejoin="round"/><rect id="n3437" data-name="City building" x="203.01" y="182.32" width="9.648" height="29.68" rx="1" fill="#E6DEC8" stroke="none"/><path id="n3438" data-name="City roof" d="M 201.01 182.32 L 207.834 174.32 L 214.658 182.32 Z" fill="#44615C" stroke="none" stroke-width="1" stroke-linecap="round" stroke-linejoin="round"/><rect id="n3439" data-name="City building" x="214.668" y="170.448" width="9.648" height="41.552" rx="1" fill="#E6DEC8" stroke="none"/><path id="n3440" data-name="City roof" d="M 212.668 170.448 L 219.49200000000002 162.448 L 226.316 170.448 Z" fill="#44615C" stroke="none" stroke-width="1" stroke-linecap="round" stroke-linejoin="round"/><rect id="n3441" data-name="City building" x="226.326" y="158.576" width="9.648" height="53.424" rx="1" fill="#E6DEC8" stroke="none"/><path id="n3442" data-name="City roof" d="M 224.32600000000002 158.576 L 231.15000000000003 150.576 L 237.97400000000002 158.576 Z" fill="#44615C" stroke="none" stroke-width="1" stroke-linecap="round" stroke-linejoin="round"/><rect id="n3443" data-name="City building" x="237.984" y="176.384" width="9.648" height="35.616" rx="1" fill="#E6DEC8" stroke="none"/><path id="n3444" data-name="City roof" d="M 235.984 176.38400000000001 L 242.80800000000002 168.38400000000001 L 249.632 176.38400000000001 Z" fill="#44615C" stroke="none" stroke-width="1" stroke-linecap="round" stroke-linejoin="round"/><rect id="n3445" data-name="City building" x="249.642" y="164.512" width="9.648" height="47.488" rx="1" fill="#E6DEC8" stroke="none"/><path id="n3446" data-name="City roof" d="M 247.642 164.512 L 254.466 156.512 L 261.29 164.512 Z" fill="#44615C" stroke="none" stroke-width="1" stroke-linecap="round" stroke-linejoin="round"/><rect id="n3447" data-name="City building" x="261.3" y="182.32" width="9.648" height="29.68" rx="1" fill="#E6DEC8" stroke="none"/><path id="n3448" data-name="City roof" d="M 259.3 182.32 L 266.124 174.32 L 272.94800000000004 182.32 Z" fill="#44615C" stroke="none" stroke-width="1" stroke-linecap="round" stroke-linejoin="round"/><rect id="n3449" data-name="City building" x="272.958" y="170.448" width="9.648" height="41.552" rx="1" fill="#E6DEC8" stroke="none"/><path id="n3450" data-name="City roof" d="M 270.95799999999997 170.448 L 277.782 162.448 L 284.606 170.448 Z" fill="#44615C" stroke="none" stroke-width="1" stroke-linecap="round" stroke-linejoin="round"/><rect id="n3451" data-name="City wall" x="136.68" y="212.0" width="156.78" height="16.96" rx="0" fill="#C8CFBA" stroke="none"/><path id="n3452" data-name="Foreground pine" d="M 17 287.52 L 5 317.52 L 29 317.52 Z" fill="#30534D" stroke="none" stroke-width="1" stroke-linecap="round" stroke-linejoin="round"/><path id="n3453" data-name="Foreground pine" d="M 84 310.84 L 72 340.84 L 96 340.84 Z" fill="#30534D" stroke="none" stroke-width="1" stroke-linecap="round" stroke-linejoin="round"/><path id="n3454" data-name="Foreground pine" d="M 151 334.15999999999997 L 139 364.15999999999997 L 163 364.15999999999997 Z" fill="#30534D" stroke="none" stroke-width="1" stroke-linecap="round" stroke-linejoin="round"/><path id="n3455" data-name="Foreground pine" d="M 218 287.52 L 206 317.52 L 230 317.52 Z" fill="#30534D" stroke="none" stroke-width="1" stroke-linecap="round" stroke-linejoin="round"/><path id="n3456" data-name="Foreground pine" d="M 285 310.84 L 273 340.84 L 297 340.84 Z" fill="#30534D" stroke="none" stroke-width="1" stroke-linecap="round" stroke-linejoin="round"/><path id="n3457" data-name="Foreground pine" d="M 352 334.15999999999997 L 340 364.15999999999997 L 364 364.15999999999997 Z" fill="#30534D" stroke="none" stroke-width="1" stroke-linecap="round" stroke-linejoin="round"/><path id="n3458" data-name="Foreground pine" d="M 17 287.52 L 5 317.52 L 29 317.52 Z" fill="#30534D" stroke="none" stroke-width="1" stroke-linecap="round" stroke-linejoin="round"/><path id="n3459" data-name="Foreground pine" d="M 84 310.84 L 72 340.84 L 96 340.84 Z" fill="#30534D" stroke="none" stroke-width="1" stroke-linecap="round" stroke-linejoin="round"/><path id="n3460" data-name="Foreground pine" d="M 151 334.15999999999997 L 139 364.15999999999997 L 163 364.15999999999997 Z" fill="#30534D" stroke="none" stroke-width="1" stroke-linecap="round" stroke-linejoin="round"/><path id="n3461" data-name="Foreground pine" d="M 218 287.52 L 206 317.52 L 230 317.52 Z" fill="#30534D" stroke="none" stroke-width="1" stroke-linecap="round" stroke-linejoin="round"/><path id="n3462" data-name="Foreground pine" d="M 285 310.84 L 273 340.84 L 297 340.84 Z" fill="#30534D" stroke="none" stroke-width="1" stroke-linecap="round" stroke-linejoin="round"/><path id="n3463" data-name="Foreground pine" d="M 352 334.15999999999997 L 340 364.15999999999997 L 364 364.15999999999997 Z" fill="#30534D" stroke="none" stroke-width="1" stroke-linecap="round" stroke-linejoin="round"/><path id="n3464" data-name="Foreground pine" d="M 17 287.52 L 5 317.52 L 29 317.52 Z" fill="#30534D" stroke="none" stroke-width="1" stroke-linecap="round" stroke-linejoin="round"/><path id="n3465" data-name="Foreground pine" d="M 84 310.84 L 72 340.84 L 96 340.84 Z" fill="#30534D" stroke="none" stroke-width="1" stroke-linecap="round" stroke-linejoin="round"/><path id="n3466" data-name="Foreground pine" d="M 151 334.15999999999997 L 139 364.15999999999997 L 163 364.15999999999997 Z" fill="#30534D" stroke="none" stroke-width="1" stroke-linecap="round" stroke-linejoin="round"/><path id="n3467" data-name="Foreground pine" d="M 218 287.52 L 206 317.52 L 230 317.52 Z" fill="#30534D" stroke="none" stroke-width="1" stroke-linecap="round" stroke-linejoin="round"/><path id="n3468" data-name="Foreground pine" d="M 285 310.84 L 273 340.84 L 297 340.84 Z" fill="#30534D" stroke="none" stroke-width="1" stroke-linecap="round" stroke-linejoin="round"/></g></g><text id="n3469" data-name="故事，可以从很小的地方开始。" font-family="Noto Serif SC,Noto Serif CJK SC,Songti SC,serif" font-size="29" font-weight="400" fill="#1E2A3B" text-anchor="start"><tspan x="40" y="78.9">故事，可以从很小的地方开始。</tspan></text><text id="n3470" data-name="写一个人，描述一个地方， 或把现有正文带进来。" font-family="Noto Sans SC,Noto Sans CJK SC,PingFang SC,Microsoft YaHei,sans-serif" font-size="22" font-weight="400" fill="#485365" text-anchor="start"><tspan x="40" y="191.2">写一个人，描述一个地方，</tspan><tspan x="40" y="225.29999999999998">或把现有正文带进来。</tspan></text><rect id="n3471" data-name="Surface" x="40" y="292" width="650" height="150" rx="13" fill="#F6F4F0" stroke="none"/><text id="n3472" data-name="在这里写下你的第一段…" font-family="Noto Serif SC,Noto Serif CJK SC,Songti SC,serif" font-size="19" font-weight="400" fill="#667281" text-anchor="start"><tspan x="60" y="336.9">在这里写下你的第一段…</tspan></text><g id="n3473" data-name="Button / 开始写作" data-target="S06" tabindex="0" role="button" aria-label="Button / 开始写作" transform="translate(40,496)"><rect width="250" height="44" rx="10" fill="#284C56" stroke="none" stroke-width="1"/><text id="n3474" data-name="开始写作" font-family="Noto Sans SC,Noto Sans CJK SC,PingFang SC,Microsoft YaHei,sans-serif" font-size="14" font-weight="500" fill="#FFFFFF" text-anchor="middle"><tspan x="125.0" y="26.550000000000004">开始写作</tspan></text></g><g id="n3475" data-name="Button / 导入已有正文" data-target="S02" tabindex="0" role="button" aria-label="Button / 导入已有正文" transform="translate(310,496)"><rect width="260" height="44" rx="10" fill="#FFFDF9" stroke="#DEDCD5" stroke-width="1"/><text id="n3476" data-name="导入已有正文" font-family="Noto Sans SC,Noto Sans CJK SC,PingFang SC,Microsoft YaHei,sans-serif" font-size="14" font-weight="500" fill="#1E2A3B" text-anchor="middle"><tspan x="130.0" y="26.550000000000004">导入已有正文</tspan></text></g><text id="n3477" data-name="还没有 Scene：不影响写作。 还没有人物资料：不会假装已经了解你的角色。" font-family="Noto Sans SC,Noto Sans CJK SC,PingFang SC,Microsoft YaHei,sans-serif" font-size="15" font-weight="400" fill="#667281" text-anchor="start"><tspan x="40" y="594.5">还没有 场景：不影响写作。</tspan><tspan x="40" y="617.75">还没有人物资料：不会假装已经了解你的角色。</tspan></text></g></g></svg>