<svg xmlns="http://www.w3.org/2000/svg" width="1440" height="960" viewBox="0 0 1440 960" role="img" aria-label="选择你正在看的世界"><title>选择你正在看的世界</title><g id="n3554" data-name="S36 · 选择你正在看的世界" transform="translate(0,0)"><rect width="1440" height="960" rx="0" fill="#F6F4F0" stroke="none" stroke-width="1"/><rect id="n3555" data-name="Surface" x="0" y="0" width="196" height="960" rx="0" fill="#FFFDF9" stroke="none"/><path id="n3556" data-name="Divider" d="M 196 0 L 196 960" fill="none" stroke="#DEDCD5" stroke-width="1" stroke-linecap="round" stroke-linejoin="round"/><rect id="n3557" data-name="Surface" x="22" y="23" width="32" height="32" rx="9" fill="#284C56" stroke="none"/><g id="n3558" data-name="Icon / book" transform="translate(28,28)"><path id="n3559" data-name="Stroke" d="M 3 4 Q 8 2 12 5 Q 16 2 21 4 L 21 20 Q 16 18 12 21 Q 8 18 3 20 Z M 12 5 L 12 21" fill="none" stroke="#FFFFFF" stroke-width="1.65" stroke-linecap="round" stroke-linejoin="round" transform="scale(0.8333333333333334)"/></g><text id="n3560" data-name="NovelCraft" font-family="Noto Sans SC,Noto Sans CJK SC,PingFang SC,Microsoft YaHei,sans-serif" font-size="18" font-weight="500" fill="#1E2A3B" text-anchor="start"><tspan x="66" y="40.8">NovelCraft</tspan></text><text id="n3561" data-name="我的作品" font-family="Noto Sans SC,Noto Sans CJK SC,PingFang SC,Microsoft YaHei,sans-serif" font-size="11" font-weight="500" fill="#667281" text-anchor="start"><tspan x="24" y="104.1">我的作品</tspan></text><text id="n3562" data-name="白石城来信" font-family="Noto Sans SC,Noto Sans CJK SC,PingFang SC,Microsoft YaHei,sans-serif" font-size="19" font-weight="700" fill="#1E2A3B" text-anchor="start"><tspan x="24" y="139.9">白石城来信</tspan></text><text id="n3563" data-name="长篇小说  /  作者工作区" font-family="Noto Sans SC,Noto Sans CJK SC,PingFang SC,Microsoft YaHei,sans-serif" font-size="11" font-weight="400" fill="#667281" text-anchor="start"><tspan x="24" y="163.1">长篇小说  /  作者工作区</tspan></text><g id="n3564" data-name="Navigation / 概览" data-target="S01" tabindex="0" role="button" aria-label="Navigation / 概览" transform="translate(24,212)"><g id="n3565" data-name="Icon / home" transform="translate(0,0)"><path id="n3566" data-name="Stroke" d="M 3 11 L 12 3 L 21 11 M 5 10 L 5 21 L 10 21 L 10 15 L 14 15 L 14 21 L 19 21 L 19 10" fill="none" stroke="#667281" stroke-width="1.65" stroke-linecap="round" stroke-linejoin="round" transform="scale(0.8333333333333334)"/></g><text id="n3567" data-name="概览" font-family="Noto Sans SC,Noto Sans CJK SC,PingFang SC,Microsoft YaHei,sans-serif" font-size="14" font-weight="400" fill="#485365" text-anchor="start"><tspan x="34" y="13.400000000000002">概览</tspan></text></g><g id="n3568" data-name="Navigation / 写作" data-target="S06" tabindex="0" role="button" aria-label="Navigation / 写作" transform="translate(24,264)"><g id="n3569" data-name="Icon / write" transform="translate(0,0)"><path id="n3570" data-name="Stroke" d="M 4 20 L 8 19 L 20 7 L 16 3 L 4 15 Z M 14 5 L 18 9 M 3 22 L 21 22" fill="none" stroke="#667281" stroke-width="1.65" stroke-linecap="round" stroke-linejoin="round" transform="scale(0.8333333333333334)"/></g><text id="n3571" data-name="写作" font-family="Noto Sans SC,Noto Sans CJK SC,PingFang SC,Microsoft YaHei,sans-serif" font-size="14" font-weight="400" fill="#485365" text-anchor="start"><tspan x="34" y="13.400000000000002">写作</tspan></text></g><g id="n3572" data-name="Navigation / 故事结构" data-target="S11" tabindex="0" role="button" aria-label="Navigation / 故事结构" transform="translate(24,316)"><g id="n3573" data-name="Icon / tree" transform="translate(0,0)"><path id="n3574" data-name="Stroke" d="M 5 3 L 5 19 L 19 19 M 5 7 L 19 7 M 12 7 L 12 13 L 19 13" fill="none" stroke="#667281" stroke-width="1.65" stroke-linecap="round" stroke-linejoin="round" transform="scale(0.8333333333333334)"/></g><text id="n3575" data-name="故事结构" font-family="Noto Sans SC,Noto Sans CJK SC,PingFang SC,Microsoft YaHei,sans-serif" font-size="14" font-weight="400" fill="#485365" text-anchor="start"><tspan x="34" y="13.400000000000002">故事结构</tspan></text></g><rect id="n3576" data-name="Surface" x="12" y="361" width="172" height="44" rx="9" fill="#E5EEEB" stroke="none"/><g id="n3577" data-name="Navigation / 世界资料" data-target="S13" tabindex="0" role="button" aria-label="Navigation / 世界资料" transform="translate(24,368)"><g id="n3578" data-name="Icon / world" transform="translate(0,0)"><path id="n3579" data-name="Stroke" d="M 3 12 A 9 9 0 1 0 21 12 A 9 9 0 1 0 3 12 M 3 12 L 21 12 M 12 3 C 5 9 5 15 12 21 C 19 15 19 9 12 3" fill="none" stroke="#284C56" stroke-width="1.65" stroke-linecap="round" stroke-linejoin="round" transform="scale(0.8333333333333334)"/></g><text id="n3580" data-name="世界资料" font-family="Noto Sans SC,Noto Sans CJK SC,PingFang SC,Microsoft YaHei,sans-serif" font-size="14" font-weight="500" fill="#284C56" text-anchor="start"><tspan x="34" y="13.400000000000002">世界资料</tspan></text></g><g id="n3581" data-name="Navigation / 故事地图" data-target="S20" tabindex="0" role="button" aria-label="Navigation / 故事地图" transform="translate(24,420)"><g id="n3582" data-name="Icon / map" transform="translate(0,0)"><path id="n3583" data-name="Stroke" d="M 2 5 L 8 2 L 16 5 L 22 2 L 22 19 L 16 22 L 8 19 L 2 22 Z M 8 2 L 8 19 M 16 5 L 16 22" fill="none" stroke="#667281" stroke-width="1.65" stroke-linecap="round" stroke-linejoin="round" transform="scale(0.8333333333333334)"/></g><text id="n3584" data-name="故事地图" font-family="Noto Sans SC,Noto Sans CJK SC,PingFang SC,Microsoft YaHei,sans-serif" font-size="14" font-weight="400" fill="#485365" text-anchor="start"><tspan x="34" y="13.400000000000002">故事地图</tspan></text></g><g id="n3585" data-name="Navigation / 待我决定" data-target="S16" tabindex="0" role="button" aria-label="Navigation / 待我决定" transform="translate(24,472)"><g id="n3586" data-name="Icon / check" transform="translate(0,0)"><path id="n3587" data-name="Stroke" d="M 4 12 L 9 17 L 20 5" fill="none" stroke="#667281" stroke-width="1.65" stroke-linecap="round" stroke-linejoin="round" transform="scale(0.8333333333333334)"/></g><text id="n3588" data-name="待我决定" font-family="Noto Sans SC,Noto Sans CJK SC,PingFang SC,Microsoft YaHei,sans-serif" font-size="14" font-weight="400" fill="#485365" text-anchor="start"><tspan x="34" y="13.400000000000002">待我决定</tspan></text></g><path id="n3589" data-name="Divider" d="M 24 552 L 172 552" fill="none" stroke="#DEDCD5" stroke-width="1" stroke-linecap="round" stroke-linejoin="round"/><text id="n3590" data-name="工作状态" font-family="Noto Sans SC,Noto Sans CJK SC,PingFang SC,Microsoft YaHei,sans-serif" font-size="11" font-weight="500" fill="#667281" text-anchor="start"><tspan x="24" y="591.1">工作状态</tspan></text><ellipse id="n3591" data-name="Ellipse" cx="28.0" cy="624.0" rx="3.0" ry="3.0" fill="#326F62" stroke="none" stroke-width="1"/><text id="n3592" data-name="理解已更新至第 12 章" font-family="Noto Sans SC,Noto Sans CJK SC,PingFang SC,Microsoft YaHei,sans-serif" font-size="11" font-weight="400" fill="#485365" text-anchor="start"><tspan x="39" y="624.1">理解已更新至第 12 章</tspan></text><text id="n3593" data-name="1 项需要你决定" font-family="Noto Sans SC,Noto Sans CJK SC,PingFang SC,Microsoft YaHei,sans-serif" font-size="12" font-weight="400" fill="#91601D" text-anchor="start"><tspan x="24" y="660.2">1 项需要你决定</tspan></text><g id="n3594" data-name="Navigation / 运行与恢复" data-target="S28" tabindex="0" role="button" aria-label="Navigation / 运行与恢复" transform="translate(24,793)"><g id="n3595" data-name="Icon / clock" transform="translate(0,0)"><path id="n3596" data-name="Stroke" d="M 3 12 A 9 9 0 1 0 21 12 A 9 9 0 1 0 3 12 M 12 6 L 12 12 L 17 15" fill="none" stroke="#667281" stroke-width="1.65" stroke-linecap="round" stroke-linejoin="round" transform="scale(0.75)"/></g><text id="n3597" data-name="运行与恢复" font-family="Noto Sans SC,Noto Sans CJK SC,PingFang SC,Microsoft YaHei,sans-serif" font-size="12" font-weight="400" fill="#485365" text-anchor="start"><tspan x="32" y="11.200000000000001">运行与恢复</tspan></text></g><g id="n3598" data-name="Navigation / 模型与授权" data-target="S29" tabindex="0" role="button" aria-label="Navigation / 模型与授权" transform="translate(24,841)"><g id="n3599" data-name="Icon / settings" transform="translate(0,0)"><path id="n3600" data-name="Stroke" d="M 4 7 L 20 7 M 4 17 L 20 17 M 9 3 L 9 11 M 16 13 L 16 21" fill="none" stroke="#667281" stroke-width="1.65" stroke-linecap="round" stroke-linejoin="round" transform="scale(0.75)"/></g><text id="n3601" data-name="模型与授权" font-family="Noto Sans SC,Noto Sans CJK SC,PingFang SC,Microsoft YaHei,sans-serif" font-size="12" font-weight="400" fill="#485365" text-anchor="start"><tspan x="32" y="11.200000000000001">模型与授权</tspan></text></g><text id="n3602" data-name="V4 设计样例 · 非生产数据" font-family="Noto Sans SC,Noto Sans CJK SC,PingFang SC,Microsoft YaHei,sans-serif" font-size="10" font-weight="400" fill="#667281" text-anchor="start"><tspan x="24" y="929.0">V4 设计样例 · 非生产数据</tspan></text><rect id="n3603" data-name="Surface" x="197" y="0" width="1243" height="64" rx="0" fill="#FFFDF9" stroke="none"/><path id="n3604" data-name="Divider" d="M 196 64 L 1440 64" fill="none" stroke="#DEDCD5" stroke-width="1" stroke-linecap="round" stroke-linejoin="round"/><text id="n3605" data-name="白石城来信" font-family="Noto Sans SC,Noto Sans CJK SC,PingFang SC,Microsoft YaHei,sans-serif" font-size="13" font-weight="400" fill="#485365" text-anchor="start"><tspan x="228" y="33.3">白石城来信</tspan></text><text id="n3606" data-name="/  范围与视角" font-family="Noto Sans SC,Noto Sans CJK SC,PingFang SC,Microsoft YaHei,sans-serif" font-size="13" font-weight="400" fill="#667281" text-anchor="start"><tspan x="359" y="33.3">/  范围与视角</tspan></text><g id="n3607" data-name="Command search" data-target="S42" tabindex="0" role="button" aria-label="Command search" transform="translate(932,12)"><rect width="258" height="40" rx="10" fill="#F6F4F0" stroke="none" stroke-width="1"/><g id="n3608" data-name="Icon / search" transform="translate(13,10)"><path id="n3609" data-name="Stroke" d="M 16 10 A 6 6 0 1 0 4 10 A 6 6 0 1 0 16 10 M 15 15 L 22 22" fill="none" stroke="#667281" stroke-width="1.65" stroke-linecap="round" stroke-linejoin="round" transform="scale(0.7083333333333334)"/></g><text id="n3610" data-name="找人物、场景、原文…" font-family="Noto Sans SC,Noto Sans CJK SC,PingFang SC,Microsoft YaHei,sans-serif" font-size="12" font-weight="400" fill="#667281" text-anchor="start"><tspan x="42" y="22.200000000000003">找人物、场景、原文…</tspan></text></g><g id="n3611" data-name="Status / 已保存" transform="translate(1210,18)"><rect width="72" height="28" rx="7" fill="#E8F1EB" stroke="none" stroke-width="1"/><text id="n3612" data-name="已保存" font-family="Noto Sans SC,Noto Sans CJK SC,PingFang SC,Microsoft YaHei,sans-serif" font-size="12" font-weight="500" fill="#326F62" text-anchor="middle"><tspan x="36.0" y="17.200000000000003">已保存</tspan></text></g><g id="n3613" data-name="Button / 项目设置" data-target="S32" tabindex="0" role="button" aria-label="Button / 项目设置" transform="translate(1300,10)"><text id="n3614" data-name="项目设置" font-family="Noto Sans SC,Noto Sans CJK SC,PingFang SC,Microsoft YaHei,sans-serif" font-size="12" font-weight="500" fill="#284C56" text-anchor="middle"><tspan x="55.0" y="25.9">项目设置</tspan></text></g><text id="n3615" data-name="选择你正在看的世界" font-family="Noto Sans SC,Noto Sans CJK SC,PingFang SC,Microsoft YaHei,sans-serif" font-size="28" font-weight="700" fill="#1E2A3B" text-anchor="start"><tspan x="228" y="126.80000000000001">选择你正在看的世界</tspan></text><text id="n3616" data-name="视角改变会重新请求服务端投影。旧作者资料、图片和标签先退出，不靠隐藏几个控件防剧透。" font-family="Noto Sans SC,Noto Sans CJK SC,PingFang SC,Microsoft YaHei,sans-serif" font-size="13" font-weight="400" fill="#667281" text-anchor="start"><tspan x="228" y="155.3">视角改变会重新请求服务端投影。旧作者资料、图片和标签先退出，不靠隐藏几个控件防剧透。</tspan></text><g id="n3617" data-name="Panel" transform="translate(228,190)"><rect width="376" height="330" rx="16" fill="#FFFDF9" stroke="#DEDCD5" stroke-width="1"/><g id="n3618" data-name="Status / 工作视图" transform="translate(22,22)"><rect width="68" height="28" rx="7" fill="#E5EEEB" stroke="none" stroke-width="1"/><text id="n3619" data-name="工作视图" font-family="Noto Sans SC,Noto Sans CJK SC,PingFang SC,Microsoft YaHei,sans-serif" font-size="12" font-weight="500" fill="#284C56" text-anchor="middle"><tspan x="34.0" y="17.200000000000003">工作视图</tspan></text></g><text id="n3620" data-name="作者当前" font-family="Noto Sans SC,Noto Sans CJK SC,PingFang SC,Microsoft YaHei,sans-serif" font-size="20" font-weight="500" fill="#1E2A3B" text-anchor="start"><tspan x="22" y="87.0">作者当前</tspan></text><text id="n3621" data-name="使用当前有效来源；系统理解与正式资料依然分开。" font-family="Noto Sans SC,Noto Sans CJK SC,PingFang SC,Microsoft YaHei,sans-serif" font-size="14" font-weight="400" fill="#485365" text-anchor="start"><tspan x="22" y="123.4">使用当前有效来源；系统理解与正式资料依然分开。</tspan></text></g><g id="n3622" data-name="Panel" transform="translate(632,190)"><rect width="376" height="330" rx="16" fill="#FFFDF9" stroke="#DEDCD5" stroke-width="1"/><g id="n3623" data-name="Status / 历史首次阅读" transform="translate(22,22)"><rect width="92" height="28" rx="7" fill="#E5EEEB" stroke="none" stroke-width="1"/><text id="n3624" data-name="历史首次阅读" font-family="Noto Sans SC,Noto Sans CJK SC,PingFang SC,Microsoft YaHei,sans-serif" font-size="12" font-weight="500" fill="#284C56" text-anchor="middle"><tspan x="46.0" y="17.200000000000003">历史首次阅读</tspan></text></g><text id="n3625" data-name="当时已知" font-family="Noto Sans SC,Noto Sans CJK SC,PingFang SC,Microsoft YaHei,sans-serif" font-size="20" font-weight="500" fill="#1E2A3B" text-anchor="start"><tspan x="22" y="87.0">当时已知</tspan></text><text id="n3626" data-name="固定读到某一章或 Scene；较晚形成的信息不会混入。" font-family="Noto Sans SC,Noto Sans CJK SC,PingFang SC,Microsoft YaHei,sans-serif" font-size="14" font-weight="400" fill="#485365" text-anchor="start"><tspan x="22" y="123.4">固定读到某一章或 场景；较晚形成的信息不会混入。</tspan></text></g><g id="n3627" data-name="Panel" transform="translate(1036,190)"><rect width="376" height="330" rx="16" fill="#FFFDF9" stroke="#DEDCD5" stroke-width="1"/><g id="n3628" data-name="Status / 回顾性理解" transform="translate(22,22)"><rect width="80" height="28" rx="7" fill="#E5EEEB" stroke="none" stroke-width="1"/><text id="n3629" data-name="回顾性理解" font-family="Noto Sans SC,Noto Sans CJK SC,PingFang SC,Microsoft YaHei,sans-serif" font-size="12" font-weight="500" fill="#284C56" text-anchor="middle"><tspan x="40.0" y="17.200000000000003">回顾性理解</tspan></text></g><text id="n3630" data-name="事后解释" font-family="Noto Sans SC,Noto Sans CJK SC,PingFang SC,Microsoft YaHei,sans-serif" font-size="20" font-weight="500" fill="#1E2A3B" text-anchor="start"><tspan x="22" y="87.0">事后解释</tspan></text><text id="n3631" data-name="允许根据后来的合法资料解释前文，明确标为回顾。" font-family="Noto Sans SC,Noto Sans CJK SC,PingFang SC,Microsoft YaHei,sans-serif" font-size="14" font-weight="400" fill="#485365" text-anchor="start"><tspan x="22" y="123.4">允许根据后来的合法资料解释前文，明确标为回顾。</tspan></text></g><g id="n3632" data-name="Panel" transform="translate(228,548)"><rect width="1184" height="340" rx="16" fill="#FFFDF9" stroke="#DEDCD5" stroke-width="1"/><text id="n3633" data-name="当前选择：当时已知 / 第 12 章之后" font-family="Noto Sans SC,Noto Sans CJK SC,PingFang SC,Microsoft YaHei,sans-serif" font-size="23" font-weight="500" fill="#1E2A3B" text-anchor="start"><tspan x="24" y="49.3">当前选择：当时已知 / 第 12 章之后</tspan></text><text id="n3634" data-name="可提供：有据人物位置、已批准地图图元与允许的原文。 不能提供：尚未批准的读者人物图、完整角色知识地图、公开分" font-family="Noto Sans SC,Noto Sans CJK SC,PingFang SC,Microsoft YaHei,sans-serif" font-size="18" font-weight="400" fill="#485365" text-anchor="start"><tspan x="24" y="116.8">可提供：有据人物位置、已批准地图图元与允许的原文。</tspan><tspan x="24" y="144.7">不能提供：尚未批准的读者人物图、完整角色知识地图、公开分享。</tspan></text><g id="n3635" data-name="Status / 不支持的视图不会回退到作者全量" transform="translate(24,211)"><rect width="590" height="28" rx="7" fill="#F7EEDB" stroke="none" stroke-width="1"/><text id="n3636" data-name="不支持的视图不会回退到作者全量" font-family="Noto Sans SC,Noto Sans CJK SC,PingFang SC,Microsoft YaHei,sans-serif" font-size="12" font-weight="500" fill="#91601D" text-anchor="middle"><tspan x="295.0" y="17.200000000000003">不支持的视图不会回退到作者全量</tspan></text></g><g id="n3637" data-name="Button / 按这个范围打开" data-target="S22" tabindex="0" role="button" aria-label="Button / 按这个范围打开" transform="translate(886,264)"><rect width="272" height="44" rx="10" fill="#284C56" stroke="none" stroke-width="1"/><text id="n3638" data-name="按这个范围打开" font-family="Noto Sans SC,Noto Sans CJK SC,PingFang SC,Microsoft YaHei,sans-serif" font-size="14" font-weight="500" fill="#FFFFFF" text-anchor="middle"><tspan x="136.0" y="26.550000000000004">按这个范围打开</tspan></text></g></g></g></svg>